<svg id="Ebene_1" data-name="Ebene 1" xmlns="http://www.w3.org/2000/svg" viewBox="0 0 251.42 409.65"><defs><style>.cls-1{fill:#fdb906}.cls-2{fill:#e40138}.cls-3{fill:#1da4c1}</style></defs><title>logo</title><path class="cls-1" d="M138.47 128.39h102.04V26.34L138.47 128.39z"/><path class="cls-2" d="M10.91 242V112.41H140.5L10.91 242z"/><path class="cls-3" d="M240.51 250.23V138.3H128.59l111.92 111.93z"/><path class="cls-2" d="M121.57 145.28l118.94 118.95-118.94 118.94V145.28z"/><path class="cls-3" d="M87.07 102.5H10.91V26.34l76.16 76.16z"/><path class="cls-1" d="M111.52 155.45L10.91 256.06l100.61 100.61V155.45z"/><path d="M252.56 3.76v265.92l-138.9 138.9V372L3.14 261.51V3.76l100.08 100.09h49.25L252.56 3.76M2.14 1.34v260.58l.29.29 110.22 110.23V411l1.71-1.71 138.9-138.9.29-.29V1.34l-1.71 1.71-99.8 99.8h-48.41L3.84 3.05l-1.7-1.71z" transform="translate(-2.14 -1.34)"/></svg>