<svg id="Ebene_1" xmlns="http://www.w3.org/2000/svg" width="251.4" height="409.6" viewBox="0 0 251.4 409.6"><style>.st0{fill:#fff}.st1{fill:#fdb906}.st2{fill:#e40138}.st3{fill:#1da4c1}</style><path class="st0" d="M1.7 1.7l99.8 99.8h48.4L251.4 0l-.3 269.1-140.6 140.6v-38.6L.3 260.9z"/><title>logo</title><path class="st1" d="M138.5 128.4h102V26.3l-102 102.1z"/><path class="st2" d="M10.9 242V112.4h129.6L10.9 242z"/><path class="st3" d="M240.5 250.2V138.3H128.6l111.9 111.9z"/><path class="st2" d="M121.6 145.3l118.9 118.9-118.9 119V145.3z"/><path class="st3" d="M87.1 102.5H10.9V26.3l76.2 76.2z"/><path class="st1" d="M111.5 155.5L10.9 256.1l100.6 100.6V155.5z"/><path d="M250.4 2.4v265.9L111.5 407.2v-36.6L1 260.2V2.4l100.1 100.1h49.2L250.4 2.4M0 0v260.6l.3.3 110.2 110.2v38.6l1.7-1.7 138.9-138.9.3-.3V0l-1.7 1.7-99.8 99.8h-48.4L1.7 1.7 0 0z"/></svg>