<svg xmlns="http://www.w3.org/2000/svg" viewBox="0 0 397.03 212.07"><defs><style>.cls-1{fill:#fff;}.cls-2{fill:#00aeef;}.cls-3{fill:#001423;}.cls-4{fill:#231f20;}</style></defs><title>beenergised</title><g id="Layer_2" data-name="Layer 2"><g id="Ebene_1" data-name="Ebene 1"><rect class="cls-1" width="397.03" height="161.35"/><rect class="cls-2" x="52.35" y="41.36" width="67.11" height="2.73"/><rect class="cls-3" x="49.62" y="44.09" width="72.58" height="72.58"/><rect class="cls-2" x="52.35" y="116.67" width="67.11" height="2.73"/><rect class="cls-2" x="46.89" y="46.82" width="2.73" height="67.11"/><rect class="cls-2" x="122.2" y="46.82" width="2.73" height="67.11"/><path class="cls-2" d="M146.09,94.44a2.66,2.66,0,0,1-2.65-2.61V68.46a2.66,2.66,0,0,1,2.65-2.61h11.83A2.11,2.11,0,0,1,160,68a2,2,0,0,1-2.12,2H147.76v7.59h9.63a2.06,2.06,0,1,1,0,4.11h-9.63v8.65H158.2a2.06,2.06,0,1,1,0,4.12Z"/><path class="cls-2" d="M170.35,74.74v18a2.13,2.13,0,0,1-2.12,2.12,2.18,2.18,0,0,1-2.2-2.12V67.81a2.42,2.42,0,0,1,2.36-2.37,2.33,2.33,0,0,1,2.08,1.18L181.2,85.55v-18a2.18,2.18,0,0,1,2.2-2.12,2.14,2.14,0,0,1,2.13,2.12V92.49a2.35,2.35,0,0,1-4.41,1.14Z"/><path class="cls-2" d="M195.35,94.44a2.66,2.66,0,0,1-2.65-2.61V68.46a2.66,2.66,0,0,1,2.65-2.61h11.83A2.11,2.11,0,0,1,209.3,68a2,2,0,0,1-2.12,2H197v7.59h9.63a2.06,2.06,0,1,1,0,4.11H197v8.65h10.44a2.06,2.06,0,1,1,0,4.12Z"/><path class="cls-2" d="M225.53,78.33c1.87,0,4-.78,4-4.08,0-2.45-1.42-4.28-4-4.28h-5.92v8.36Zm-2.25,4.12h-3.67V92.73a2.17,2.17,0,0,1-2.16,2.12,2.14,2.14,0,0,1-2.16-2.12V68.46a2.63,2.63,0,0,1,2.65-2.61h7.59a8.24,8.24,0,0,1,6,2.28,8.43,8.43,0,0,1,2.37,6.12,8.15,8.15,0,0,1-2.33,6A7.93,7.93,0,0,1,228,82.17l5.67,9.5a2.11,2.11,0,0,1,.33,1.1,2.18,2.18,0,0,1-2.12,2.08,2,2,0,0,1-1.79-1Z"/><path class="cls-2" d="M253.83,82.57h-4a2.06,2.06,0,0,1-2.08-2.08,2.09,2.09,0,0,1,2.08-2.08h5.67a2.64,2.64,0,0,1,2.65,2.65V91a2.59,2.59,0,0,1-1.55,2.4,19.33,19.33,0,0,1-7.3,1.43c-6.28,0-10.52-4.24-10.52-10.56V76c0-6.33,4.24-10.57,10.52-10.57a13.82,13.82,0,0,1,6.77,1.84,2.19,2.19,0,0,1,1,1.87,2,2,0,0,1-2.12,2,2.11,2.11,0,0,1-1.1-.33,9.76,9.76,0,0,0-4.57-1.34c-4,0-6.2,2.45-6.2,6.4v8.65c0,4,2.24,6.36,6.2,6.36a14.82,14.82,0,0,0,4.53-.73Z"/><path class="cls-2" d="M264.59,67.6a2.18,2.18,0,0,1,2.16-2.16,2.21,2.21,0,0,1,2.17,2.16V92.69a2.21,2.21,0,0,1-2.17,2.16,2.18,2.18,0,0,1-2.16-2.16Z"/><path class="cls-2" d="M279.72,80.29a7.37,7.37,0,0,1-4.81-7.06c0-4.85,4.57-7.79,9.22-7.79a16.79,16.79,0,0,1,6.73,1.35,2.2,2.2,0,0,1,1.59,2.08,2,2,0,0,1-2,1.95,1.72,1.72,0,0,1-.77-.16,12.7,12.7,0,0,0-5.72-1.22c-2,0-4.65.81-4.65,3.59,0,1.92.94,2.77,2.58,3.51l4.65,2c3.09,1.35,6,3.27,6,7.64,0,4.93-3.55,8.64-9.06,8.64a20,20,0,0,1-7.3-1.55,2,2,0,0,1-1.26-1.92,1.94,1.94,0,0,1,2-2.07,3.09,3.09,0,0,1,1.3.28,13.06,13.06,0,0,0,5.3,1.26c2.94,0,4.7-1.42,4.7-4.12,0-2-1.72-3.46-3.55-4.28Z"/><path class="cls-2" d="M300.89,94.44a2.66,2.66,0,0,1-2.65-2.61V68.46a2.66,2.66,0,0,1,2.65-2.61h11.83A2.11,2.11,0,0,1,314.84,68a2,2,0,0,1-2.12,2H302.56v7.59h9.63a2.06,2.06,0,1,1,0,4.11h-9.63v8.65H313a2.06,2.06,0,1,1,0,4.12Z"/><path class="cls-2" d="M335.76,76.86c0-4.32-2.49-6.89-6.85-6.89h-3.76V90.32h3.76c4.36,0,6.85-2.61,6.85-6.89ZM323.48,94.44a2.63,2.63,0,0,1-2.65-2.61V68.46a2.63,2.63,0,0,1,2.65-2.61h5.39c6.69,0,11.21,4.45,11.21,11.09v6.41c0,6.65-4.52,11.09-11.21,11.09Z"/><path class="cls-1" d="M75.85,76.19a14.44,14.44,0,0,0-4.53.63V90.26a14,14,0,0,0,4.53.67c4.69,0,5-3.66,5-7.6,0-3.63-.43-7.14-5-7.14m-.27,17.94a23.23,23.23,0,0,1-8.44-1.31V65.12h4.18v8.67A17.89,17.89,0,0,1,76.68,73c6,0,8.43,3.51,8.43,10.33,0,7.17-2.56,10.8-9.53,10.8"/><path class="cls-1" d="M102.26,81.79c-.12-3-.55-5.79-4.61-5.79S93.12,78.83,93,81.79Zm3.83,2.6-13,0c0,3.51.78,6.46,5.67,6.46a20.57,20.57,0,0,0,6-.83l.23,3.08a23.9,23.9,0,0,1-7.76,1c-6.46,0-8.23-3.71-8.23-10.8,0-6.74,2.56-10.33,8.86-10.33s8.39,3.59,8.39,10.33c0,.2-.07.9-.07,1.06"/><path class="cls-2" d="M349.49,70a.64.64,0,0,0,.73-.72.68.68,0,0,0-.73-.76h-.91V70Zm-.28.78h-.63v1.85a.42.42,0,0,1-.83,0V68.25a.49.49,0,0,1,.5-.49h1.24A1.51,1.51,0,0,1,351,69.31a1.54,1.54,0,0,1-.42,1.11,1.59,1.59,0,0,1-.54.31l.93,1.73a.43.43,0,0,1,.07.23.38.38,0,0,1-.39.39.43.43,0,0,1-.37-.23Zm4.18-.42a4.14,4.14,0,1,0-4.15,4.19,4.18,4.18,0,0,0,4.15-4.19m-9.11,0a5,5,0,1,1,5,5,5,5,0,0,1-5-5"/><rect class="cls-4" y="152.96" width="397.03" height="59.11"/><path class="cls-1" d="M59.21,186.14a6.4,6.4,0,0,1-6.74,6.76,6.41,6.41,0,0,1-6.77-6.76v-6.31a6.41,6.41,0,0,1,6.77-6.76,6.4,6.4,0,0,1,6.74,6.76Zm-2.92-6.47c0-2.45-1.37-3.91-3.82-3.91a3.55,3.55,0,0,0-3.85,3.91v6.63a3.55,3.55,0,0,0,3.85,3.91c2.45,0,3.82-1.46,3.82-3.91Zm8.24-4.57a1.78,1.78,0,0,1,1.79-1.76h4.59a5.58,5.58,0,0,1,5.84,5.89A5.45,5.45,0,0,1,70.91,185H67.45v6.47A1.49,1.49,0,0,1,66,192.9a1.47,1.47,0,0,1-1.46-1.45Zm6.38,7.1a2.65,2.65,0,0,0,2.92-3c0-1.93-1-3.11-2.92-3.11H67.45v6.08Zm12.45,10.43a1.79,1.79,0,0,1-1.79-1.76V175.1a1.8,1.8,0,0,1,1.79-1.76h8a1.42,1.42,0,0,1,1.43,1.43,1.37,1.37,0,0,1-1.43,1.35H84.49v5.12H91A1.39,1.39,0,1,1,91,184H84.49v5.83h7a1.39,1.39,0,1,1,0,2.78Zm19.82-8.09H100.7v6.93a1.46,1.46,0,0,1-2.91,0V175.1a1.78,1.78,0,0,1,1.79-1.76h5.11a5.56,5.56,0,0,1,4,1.54,5.72,5.72,0,0,1,1.59,4.13,5.51,5.51,0,0,1-1.56,4,5.3,5.3,0,0,1-2.4,1.3l3.83,6.41a1.52,1.52,0,0,1,.22.74,1.46,1.46,0,0,1-1.43,1.4,1.35,1.35,0,0,1-1.21-.68Zm1.51-2.78a2.47,2.47,0,0,0,2.73-2.75,2.64,2.64,0,0,0-2.73-2.89h-4v5.64Zm20,6h-6.77L116.37,192a1.41,1.41,0,0,1-1.35.93,1.43,1.43,0,0,1-1.4-1.43,1.48,1.48,0,0,1,.08-.46l6-16.9a1.62,1.62,0,0,1,3,0L128.83,191a1.25,1.25,0,0,1,.09.46,1.44,1.44,0,0,1-2.78.5Zm-3.38-9.44-2.4,6.66h4.79ZM135,176.12h-4.08a1.39,1.39,0,1,1,0-2.78h11a1.39,1.39,0,1,1,0,2.78h-4.05v15.33a1.46,1.46,0,0,1-2.91,0Zm12.47-1.6a1.47,1.47,0,0,1,1.46-1.45,1.49,1.49,0,0,1,1.46,1.45v16.93a1.49,1.49,0,0,1-1.46,1.45,1.47,1.47,0,0,1-1.46-1.45Zm11.64,4.82v12.13a1.44,1.44,0,0,1-1.43,1.43,1.47,1.47,0,0,1-1.48-1.43V174.66a1.63,1.63,0,0,1,1.59-1.59,1.59,1.59,0,0,1,1.41.79l7.23,12.77V174.5a1.47,1.47,0,0,1,1.49-1.43,1.44,1.44,0,0,1,1.43,1.43v16.81a1.61,1.61,0,0,1-1.6,1.59,1.59,1.59,0,0,1-1.37-.82Zm25.72,5.28h-2.7a1.39,1.39,0,0,1-1.4-1.4,1.4,1.4,0,0,1,1.4-1.4H186a1.78,1.78,0,0,1,1.79,1.78v6.72a1.75,1.75,0,0,1-1,1.62,13.08,13.08,0,0,1-4.93,1,6.73,6.73,0,0,1-7.1-7.12v-5.59a6.73,6.73,0,0,1,7.1-7.12,9.41,9.41,0,0,1,4.57,1.23,1.51,1.51,0,0,1,.69,1.27,1.37,1.37,0,0,1-1.43,1.32,1.45,1.45,0,0,1-.75-.22,6.54,6.54,0,0,0-3.08-.91c-2.67,0-4.18,1.65-4.18,4.32v5.84c0,2.66,1.51,4.29,4.18,4.29a9.86,9.86,0,0,0,3.06-.5Zm18.69,8a1.8,1.8,0,0,1-1.79-1.76V175.1a1.8,1.8,0,0,1,1.79-1.76h8a1.42,1.42,0,0,1,1.43,1.43,1.37,1.37,0,0,1-1.43,1.35h-6.85v5.12h6.49a1.39,1.39,0,1,1,0,2.78h-6.49v5.83h7a1.39,1.39,0,1,1,0,2.78Zm15.23-8.42a1.35,1.35,0,0,1,0-2.7h6.41a1.35,1.35,0,0,1,0,2.7Zm27-4.79-4.13,7.49a1.65,1.65,0,0,1-1.4.82,1.61,1.61,0,0,1-1.41-.82l-4.13-7.49v12a1.46,1.46,0,0,1-2.91,0V174.66a1.6,1.6,0,0,1,3-.74l5.43,9.68,5.42-9.68a1.68,1.68,0,0,1,1.43-.85,1.59,1.59,0,0,1,1.59,1.59v16.79a1.48,1.48,0,0,1-1.48,1.45,1.46,1.46,0,0,1-1.43-1.45Zm21.75,6.72a6.76,6.76,0,1,1-13.51,0v-6.31a6.76,6.76,0,1,1,13.51,0Zm-2.92-6.47c0-2.45-1.38-3.91-3.83-3.91a3.55,3.55,0,0,0-3.85,3.91v6.63a3.55,3.55,0,0,0,3.85,3.91c2.45,0,3.83-1.46,3.83-3.91Zm10,13a1.78,1.78,0,0,1-1.79-1.76V175.1a1.78,1.78,0,0,1,1.79-1.76h4.48a5.09,5.09,0,0,1,5.42,5.34,4.81,4.81,0,0,1-1.84,3.82,5.25,5.25,0,0,1,2.36,4.41,5.42,5.42,0,0,1-5.75,5.72Zm4.07-11.39a2.7,2.7,0,0,0,2.91-2.56,2.27,2.27,0,0,0-2.5-2.56h-3.36v5.12Zm.6,8.61a2.6,2.6,0,0,0,2.84-2.94,3,3,0,0,0-3.28-2.89h-3.11v5.83Zm10.94-15.33a1.46,1.46,0,0,1,1.45-1.45,1.48,1.48,0,0,1,1.46,1.45v16.93a1.48,1.48,0,0,1-1.46,1.45,1.46,1.46,0,0,1-1.45-1.45Zm10.51,18.11a1.82,1.82,0,0,1-1.79-1.79V174.52a1.46,1.46,0,1,1,2.92,0v15.3h7a1.4,1.4,0,0,1,1.44,1.38,1.38,1.38,0,0,1-1.41,1.4Zm13.93-18.11a1.47,1.47,0,0,1,1.46-1.45,1.49,1.49,0,0,1,1.46,1.45v16.93a1.49,1.49,0,0,1-1.46,1.45,1.47,1.47,0,0,1-1.46-1.45Zm12.47,1.6H323.1a1.39,1.39,0,1,1,0-2.78h11a1.39,1.39,0,1,1,0,2.78h-4.05v15.33a1.46,1.46,0,0,1-2.92,0Zm17.1,8.06-5.31-9a1.31,1.31,0,0,1-.19-.71,1.43,1.43,0,0,1,2.64-.75l4.29,7.54,4.29-7.54a1.42,1.42,0,0,1,1.24-.68,1.44,1.44,0,0,1,1.41,1.43,1.32,1.32,0,0,1-.2.71l-5.31,9v7.29a1.43,1.43,0,1,1-2.86,0Z"/></g></g></svg>