<svg xmlns="http://www.w3.org/2000/svg" width="20mm" height="3.47mm" viewBox="0 0 56.69 9.85">
  <defs>
    <style>
      .a {
        fill: #94c11f;
      }
      .b {
        fill: #575756;
      }
    </style>
  </defs>
  <title>Element 1</title>
  <g>
    <path class="a" d="M46.42,7.37a1.24,1.24,0,1,0,1.24,1.24,1.24,1.24,0,0,0-1.24-1.24Z"/>
    <path class="b" d="M56.2,8.92l-.45,0a1.09,1.09,0,0,1-.81-.25,1.42,1.42,0,0,1-.22-.9V4h1.81V3.25H54.72V1.36l-.86.54v6a3.22,3.22,0,0,0,0,.33q0,.13,0,.21a1,1,0,0,0,0,.17,1.4,1.4,0,0,0,.57.79,2.16,2.16,0,0,0,1.1.26,4.43,4.43,0,0,0,1.08-.13V8.82a3.86,3.86,0,0,1-.49.1Z"/>
    <path class="b" d="M50.85,3.1a4.39,4.39,0,0,0-2.1.55V4.5a4.31,4.31,0,0,1,1-.48,3.61,3.61,0,0,1,1.06-.17,1.84,1.84,0,0,1,.8.16.9.9,0,0,1,.48.41,1.53,1.53,0,0,1,.09.34,3.6,3.6,0,0,1,0,.56v.31c-.32,0-.6,0-.85,0a5.85,5.85,0,0,0-.72.07,3.16,3.16,0,0,0-1.76.74,1.9,1.9,0,0,0-.63,1.46c0,1.22.93,1.84,2.79,1.84a11,11,0,0,0,2-.23V5.06a1.87,1.87,0,0,0-.58-1.53,2.55,2.55,0,0,0-1.61-.43Zm1.33,5.81a4.27,4.27,0,0,1-.57.09L51,9a3,3,0,0,1-1.47-.27,1,1,0,0,1-.44-.88,1.26,1.26,0,0,1,.73-1.21,5.52,5.52,0,0,1,2.36-.37V8.91Z"/>
    <path class="b" d="M18,3.21l-.26,0-.22,0A1.83,1.83,0,0,0,15.6,4.7V3.25H13.45V9.6h2.24V6.92a2.06,2.06,0,0,1,.36-1.31,1.3,1.3,0,0,1,1.06-.45,2,2,0,0,1,.9.21V3.21Z"/>
    <path class="b" d="M22.91,3.16A1.83,1.83,0,0,0,21,4.7V3.25H18.83V9.6h2.24V6.92a2.06,2.06,0,0,1,.36-1.31,1.29,1.29,0,0,1,1.06-.45,2,2,0,0,1,.9.21V3.21l-.27,0-.21,0Z"/>
    <path class="b" d="M12.23,4.21A2.51,2.51,0,0,0,9.82,3.12a6.73,6.73,0,0,0-1.46.16A6,6,0,0,0,7,3.69V5.16a5.86,5.86,0,0,1,1.17-.37,5.14,5.14,0,0,1,1.15-.13,1.44,1.44,0,0,1,.79.16.54.54,0,0,1,.25.51v.2h-.29a5.83,5.83,0,0,0-1.45.17,3.47,3.47,0,0,0-1.12.47,2,2,0,0,0-.71.73,1.76,1.76,0,0,0-.25.94,1.56,1.56,0,0,0,.76,1.44,4.33,4.33,0,0,0,2.15.45c.56,0,1.1,0,1.62-.08a9.19,9.19,0,0,0,1.4-.21V5.88a5.24,5.24,0,0,0-.07-1,1.61,1.61,0,0,0-.21-.65ZM9.54,8.35a.85.85,0,0,1-.94-.77c0-.45.44-.92,1.53-.92h.28V8.28a5.1,5.1,0,0,1-.87.07Z"/>
    <path class="b" d="M2.24,6.71,4,9.6h2.7L5.48,8,5,7.36A4.59,4.59,0,0,0,4.66,7a2.38,2.38,0,0,0-.26-.28c-.08-.09-.19-.19-.33-.32.11-.09.21-.17.29-.25a3.19,3.19,0,0,0,.28-.32L5,5.33c.13-.18.29-.42.47-.71l.89-1.37H3.75L2.24,6.06V.25H0V9.6H2.24V6.71Z"/>
    <polygon class="b" points="24.21 9.6 26.45 9.6 26.45 3.25 24.21 3.25 24.21 9.6 24.21 9.6"/>
    <path class="b" d="M25.32,2.47a1.24,1.24,0,1,0-1.24-1.23,1.24,1.24,0,0,0,1.24,1.23Z"/>
    <path class="b" d="M38.29,3.16A1.82,1.82,0,0,0,36.36,4.7V3.25H34.21V9.6h2.24V6.92a2.06,2.06,0,0,1,.36-1.31,1.28,1.28,0,0,1,1-.45,2.06,2.06,0,0,1,.91.21V3.21l-.27,0-.21,0Z"/>
    <path class="b" d="M45.3,6.56a3.49,3.49,0,0,0,0-.51,3,3,0,0,0-.23-1.18,2.55,2.55,0,0,0-.61-.93,2.68,2.68,0,0,0-.94-.61,3.48,3.48,0,0,0-2.46,0,2.7,2.7,0,0,0-1,.68,3,3,0,0,0-.65,1,3.47,3.47,0,0,0-.22,1.28,3.63,3.63,0,0,0,.31,1.5A3.16,3.16,0,0,0,40.44,9a3.45,3.45,0,0,0,1.09.57A5.36,5.36,0,0,0,43,9.73a7.42,7.42,0,0,0,1.81-.23,1.92,1.92,0,0,1-.22-.89,1.77,1.77,0,0,1,.1-.61,6.07,6.07,0,0,1-1.35.15,2.45,2.45,0,0,1-1.25-.26,1.05,1.05,0,0,1-.52-.78h3.64a5.23,5.23,0,0,0,.12-.55ZM43.37,6h-1.9c0-.56.23-1.32.94-1.32,1.06,0,1,1.09,1,1.32Z"/>
    <path class="b" d="M32.55,3.94a2.64,2.64,0,0,0-.94-.61,3.34,3.34,0,0,0-1.21-.21,3.29,3.29,0,0,0-1.26.24,2.79,2.79,0,0,0-1,.68,3,3,0,0,0-.64,1,3.47,3.47,0,0,0-.23,1.28,3.64,3.64,0,0,0,.32,1.5A3.16,3.16,0,0,0,28.5,9a3.3,3.3,0,0,0,1.08.57A5.49,5.49,0,0,0,31,9.73a7.28,7.28,0,0,0,2.06-.3V7.9a5.82,5.82,0,0,1-1.72.25,2.51,2.51,0,0,1-1.26-.26,1.08,1.08,0,0,1-.52-.78h3.65a5.23,5.23,0,0,0,.12-.55c0-.13,0-.3,0-.51a3,3,0,0,0-.22-1.18,2.69,2.69,0,0,0-.61-.93ZM31.43,6H29.52c0-.56.24-1.32.94-1.32,1.07,0,1,1.09,1,1.32Z"/>
  </g>
</svg>
