<svg xmlns="http://www.w3.org/2000/svg" width="136.82mm" height="10.27mm" viewBox="0 0 387.83 29.1">
  <defs>
    <style>
      .a {
        fill: #454545;
      }

      .b {
        fill: #d21f1f;
      }
    </style>
  </defs>
  <title>Element 2</title>
  <g>
    <path class="a" d="M0,28.63V0H21.23V4.84H5.78v6.35H20.16V16H5.78v7.79h16v4.82Z"/>
    <path class="a" d="M26,21V15.51H36.8V21Z"/>
    <path class="a" d="M40,0H51.46a33,33,0,0,1,5.07.28,7.57,7.57,0,0,1,3,1.18,7.39,7.39,0,0,1,2.2,2.4,6.52,6.52,0,0,1,.88,3.35,6.62,6.62,0,0,1-1.09,3.69,6.69,6.69,0,0,1-2.94,2.52,7.52,7.52,0,0,1,4,2.6A6.86,6.86,0,0,1,64,20.33a8.58,8.58,0,0,1-.9,3.8,7.8,7.8,0,0,1-2.48,2.95,8.2,8.2,0,0,1-3.88,1.36c-1,.1-3.29.17-7,.19H40ZM45.8,4.77v6.62h3.79c2.25,0,3.65,0,4.2-.1a3.79,3.79,0,0,0,2.33-1A3,3,0,0,0,57,8a3.12,3.12,0,0,0-.73-2.16,3.34,3.34,0,0,0-2.18-1c-.57-.06-2.22-.09-4.94-.09Zm0,11.38v7.66h5.35a25.57,25.57,0,0,0,4-.18A3.37,3.37,0,0,0,58,20.06a3.72,3.72,0,0,0-.63-2.19,3.55,3.55,0,0,0-1.8-1.31,19.84,19.84,0,0,0-5.13-.41Z"/>
    <path class="a" d="M82.5,28.63v-3.1a8,8,0,0,1-3,2.61,8.33,8.33,0,0,1-3.9,1,7.55,7.55,0,0,1-3.75-.92,5.48,5.48,0,0,1-2.4-2.57A11.62,11.62,0,0,1,68.73,21V7.89h5.49v9.53a26.57,26.57,0,0,0,.3,5.36,3,3,0,0,0,1.1,1.57,3.46,3.46,0,0,0,2,.57,4.31,4.31,0,0,0,2.52-.77,3.89,3.89,0,0,0,1.52-1.91,22.48,22.48,0,0,0,.41-5.6V7.89H87.6V28.63Z"/>
    <path class="a" d="M91.35,22.71l5.51-.84a4,4,0,0,0,1.42,2.44,4.85,4.85,0,0,0,3,.83,5.41,5.41,0,0,0,3.2-.78,1.76,1.76,0,0,0,.72-1.47,1.42,1.42,0,0,0-.39-1,4.29,4.29,0,0,0-1.83-.73c-4.43-1-7.24-1.87-8.42-2.67a5.35,5.35,0,0,1-2.46-4.67,5.74,5.74,0,0,1,2.13-4.53q2.13-1.85,6.6-1.84,4.26,0,6.33,1.39a7.06,7.06,0,0,1,2.85,4.1l-5.18,1A3.19,3.19,0,0,0,103.58,12a4.58,4.58,0,0,0-2.64-.64,6,6,0,0,0-3.11.6,1.3,1.3,0,0,0-.62,1.12,1.2,1.2,0,0,0,.54,1q.75.55,5.13,1.54c2.92.67,5,1.48,6.12,2.45a5,5,0,0,1,1.72,4.08,6.26,6.26,0,0,1-2.38,4.9q-2.39,2.06-7,2.05a11.54,11.54,0,0,1-6.71-1.72A7.89,7.89,0,0,1,91.35,22.71Z"/>
    <path class="a" d="M115.53,5.08V0H121V5.08Zm0,23.55V7.89H121V28.63Z"/>
    <path class="a" d="M145.51,28.63H140V18.05a16.63,16.63,0,0,0-.35-4.35,3.08,3.08,0,0,0-1.14-1.53,3.26,3.26,0,0,0-1.91-.55,4.42,4.42,0,0,0-2.56.78,4,4,0,0,0-1.55,2.07,17.92,17.92,0,0,0-.42,4.77v9.39H126.6V7.89h5.1v3.05a8.3,8.3,0,0,1,6.84-3.52,8.2,8.2,0,0,1,3.32.66,5.45,5.45,0,0,1,2.27,1.67,6.17,6.17,0,0,1,1.08,2.3,17.29,17.29,0,0,1,.3,3.69Z"/>
    <path class="a" d="M163.09,22l5.46.92a9,9,0,0,1-3.33,4.58,9.74,9.74,0,0,1-5.69,1.57q-5.42,0-8-3.53a11.93,11.93,0,0,1-2.05-7.15q0-5.16,2.7-8.08A8.89,8.89,0,0,1,159,7.42a9.22,9.22,0,0,1,7.31,3.06q2.67,3.06,2.56,9.36H155.1a5.53,5.53,0,0,0,1.33,3.8A4.13,4.13,0,0,0,159.59,25a3.36,3.36,0,0,0,2.17-.7A4.41,4.41,0,0,0,163.09,22Zm.31-5.55a5.31,5.31,0,0,0-1.23-3.62,3.76,3.76,0,0,0-2.85-1.24,3.82,3.82,0,0,0-3,1.31,5,5,0,0,0-1.15,3.55Z"/>
    <path class="a" d="M171.39,22.71l5.5-.84a4.08,4.08,0,0,0,1.43,2.44,4.85,4.85,0,0,0,3,.83,5.43,5.43,0,0,0,3.2-.78,1.76,1.76,0,0,0,.72-1.47,1.42,1.42,0,0,0-.39-1,4.29,4.29,0,0,0-1.83-.73c-4.43-1-7.24-1.87-8.42-2.67a5.35,5.35,0,0,1-2.46-4.67,5.74,5.74,0,0,1,2.13-4.53q2.13-1.85,6.6-1.84,4.26,0,6.33,1.39a7.06,7.06,0,0,1,2.85,4.1l-5.18,1A3.19,3.19,0,0,0,183.62,12a4.6,4.6,0,0,0-2.64-.64,6,6,0,0,0-3.11.6,1.3,1.3,0,0,0-.62,1.12,1.2,1.2,0,0,0,.54,1q.75.55,5.13,1.54c2.92.67,5,1.48,6.12,2.45a5,5,0,0,1,1.72,4.08,6.26,6.26,0,0,1-2.38,4.9q-2.38,2.06-7,2.05a11.54,11.54,0,0,1-6.71-1.72A7.85,7.85,0,0,1,171.39,22.71Z"/>
    <path class="a" d="M193.63,22.71l5.51-.84a4,4,0,0,0,1.43,2.44,4.82,4.82,0,0,0,3,.83,5.47,5.47,0,0,0,3.21-.78,1.76,1.76,0,0,0,.72-1.47,1.42,1.42,0,0,0-.39-1,4.35,4.35,0,0,0-1.84-.73c-4.42-1-7.23-1.87-8.41-2.67a5.34,5.34,0,0,1-2.47-4.67,5.74,5.74,0,0,1,2.13-4.53q2.13-1.85,6.6-1.84,4.26,0,6.33,1.39a7.06,7.06,0,0,1,2.85,4.1l-5.17,1A3.19,3.19,0,0,0,205.87,12a4.61,4.61,0,0,0-2.65-.64,6,6,0,0,0-3.1.6,1.31,1.31,0,0,0-.63,1.12,1.19,1.19,0,0,0,.55,1q.74.55,5.13,1.54c2.92.67,5,1.48,6.12,2.45A5.07,5.07,0,0,1,213,22.15a6.27,6.27,0,0,1-2.39,4.9q-2.37,2.06-7.05,2.05a11.5,11.5,0,0,1-6.7-1.72A7.9,7.9,0,0,1,193.63,22.71Z"/>
    <path class="a" d="M217.81,28.63V23.14h5.49v5.49Z"/>
    <path class="b" d="M240.14,28.63V0h5.62l11.72,19.12V0h5.37V28.63h-5.8L245.51,10V28.63Z"/>
    <path class="b" d="M273,14.22l-5-.9a7.74,7.74,0,0,1,2.89-4.45c1.36-1,3.4-1.45,6.09-1.45a13.13,13.13,0,0,1,5.47.87A5.47,5.47,0,0,1,285,10.5a11.29,11.29,0,0,1,.73,4.91l-.06,6.41a21.74,21.74,0,0,0,.27,4,11.48,11.48,0,0,0,1,2.78h-5.43c-.14-.36-.32-.9-.52-1.62-.1-.32-.16-.54-.2-.64a10,10,0,0,1-3,2.05,8.66,8.66,0,0,1-3.42.68,7,7,0,0,1-5-1.74A5.78,5.78,0,0,1,267.48,23a5.93,5.93,0,0,1,.84-3.14,5.54,5.54,0,0,1,2.35-2.11A18.71,18.71,0,0,1,275,16.45a31.34,31.34,0,0,0,5.33-1.35v-.55a2.86,2.86,0,0,0-.78-2.26,4.74,4.74,0,0,0-2.95-.67,3.84,3.84,0,0,0-2.28.58A4,4,0,0,0,273,14.22Zm7.34,4.45a31.31,31.31,0,0,1-3.34.84,10.32,10.32,0,0,0-3,1A2.3,2.3,0,0,0,273,22.4a2.66,2.66,0,0,0,.86,2,3,3,0,0,0,2.19.84,4.77,4.77,0,0,0,2.83-1,3.48,3.48,0,0,0,1.31-1.82,11.06,11.06,0,0,0,.21-2.67Z"/>
    <path class="b" d="M290.76,7.89h5.06v2.83a8.15,8.15,0,0,1,6.47-3.3,7,7,0,0,1,3.45.82,6.31,6.31,0,0,1,2.4,2.48,9.88,9.88,0,0,1,2.95-2.48,7.33,7.33,0,0,1,3.38-.82,7.49,7.49,0,0,1,3.87.93,5.73,5.73,0,0,1,2.36,2.72,11.78,11.78,0,0,1,.57,4.3V28.63h-5.49V16.78q0-3.09-.57-4a2.58,2.58,0,0,0-2.34-1.17,3.81,3.81,0,0,0-2.17.7,4,4,0,0,0-1.46,2.06,14.86,14.86,0,0,0-.45,4.29v10H303.3V17.27a16.15,16.15,0,0,0-.29-3.91,2.52,2.52,0,0,0-.91-1.31,2.85,2.85,0,0,0-1.67-.43,4.05,4.05,0,0,0-2.29.68,3.8,3.8,0,0,0-1.45,2,14.72,14.72,0,0,0-.44,4.27V28.63h-5.49Z"/>
    <path class="b" d="M326.74,5.08V0h5.49V5.08Zm0,23.55V7.89h5.49V28.63Z"/>
    <path class="b" d="M355.94,14l-5.41,1a4,4,0,0,0-1.24-2.44,3.74,3.74,0,0,0-2.51-.82,4.13,4.13,0,0,0-3.28,1.41c-.81.95-1.22,2.53-1.22,4.74,0,2.46.42,4.2,1.24,5.22a4.09,4.09,0,0,0,3.33,1.52,3.69,3.69,0,0,0,2.56-.89,5.28,5.28,0,0,0,1.41-3.06l5.39.92A9.57,9.57,0,0,1,353,27.21a10,10,0,0,1-6.39,1.89,9.5,9.5,0,0,1-7.25-2.87q-2.72-2.86-2.71-7.95t2.72-8a9.64,9.64,0,0,1,7.34-2.86,10,10,0,0,1,6,1.63A9,9,0,0,1,355.94,14Z"/>
    <path class="b" d="M358.16,22.71l5.51-.84a4.08,4.08,0,0,0,1.43,2.44,4.82,4.82,0,0,0,3,.83,5.47,5.47,0,0,0,3.21-.78,1.76,1.76,0,0,0,.72-1.47,1.42,1.42,0,0,0-.39-1,4.35,4.35,0,0,0-1.84-.73c-4.42-1-7.23-1.87-8.41-2.67a5.36,5.36,0,0,1-2.47-4.67,5.77,5.77,0,0,1,2.13-4.53q2.13-1.85,6.61-1.84c2.84,0,4.94.46,6.32,1.39a7,7,0,0,1,2.85,4.1l-5.17,1A3.19,3.19,0,0,0,370.4,12a4.61,4.61,0,0,0-2.65-.64,6,6,0,0,0-3.1.6,1.31,1.31,0,0,0-.63,1.12,1.21,1.21,0,0,0,.55,1c.5.37,2.2.88,5.13,1.54s5,1.48,6.12,2.45a5,5,0,0,1,1.72,4.08,6.26,6.26,0,0,1-2.38,4.9q-2.39,2.06-7.06,2.05a11.5,11.5,0,0,1-6.7-1.72A7.9,7.9,0,0,1,358.16,22.71Z"/>
    <path class="b" d="M382.34,28.63V23.14h5.49v5.49Z"/>
  </g>
</svg>
