<?xml version="1.0" standalone="no"?>
<!DOCTYPE svg PUBLIC "-//W3C//DTD SVG 20010904//EN"
 "http://www.w3.org/TR/2001/REC-SVG-20010904/DTD/svg10.dtd">
<svg version="1.0" xmlns="http://www.w3.org/2000/svg"
 width="1428.000000pt" height="1428.000000pt" viewBox="0 0 1428.000000 1428.000000"
 preserveAspectRatio="xMidYMid meet">
<metadata>
Created by potrace 1.11, written by Peter Selinger 2001-2013
</metadata>
<g transform="translate(0.000000,1428.000000) scale(0.100000,-0.100000)"
fill="#000000" stroke="none">
<path d="M2550 12756 l0 -1524 1518 2 c834 0 1516 4 1515 9 -2 4 -684 689
-1518 1522 l-1515 1515 0 -1524z"/>
<path d="M9698 12238 c-1121 -1120 -2034 -2039 -2030 -2041 4 -1 921 -3 2037
-2 l2030 1 3 1022 c1 562 1 1480 0 2039 l-3 1018 -2037 -2037z"/>
<path d="M2550 8248 c0 -1424 2 -2588 5 -2588 6 0 5142 5135 5162 5160 10 14
-275 15 -2578 15 l-2589 0 0 -2587z"/>
<path d="M7315 9800 c-11 -4 -26 -5 -32 -3 -7 3 -13 2 -13 -1 0 -3 1006 -1012
2235 -2241 l2235 -2235 0 2240 0 2240 -37 1 c-21 1 -41 1 -45 0 -9 -1 -50 -1
-126 -1 -34 1 -66 -2 -71 -5 -5 -3 -12 -1 -15 4 -3 5 -21 5 -41 1 -19 -4 -37
-4 -40 0 -3 4 -21 4 -40 0 -19 -4 -37 -4 -40 0 -3 4 -21 4 -40 0 -19 -4 -37
-4 -40 0 -3 4 -21 4 -40 0 -19 -4 -37 -4 -40 0 -3 4 -21 4 -40 0 -19 -4 -37
-4 -40 0 -3 4 -21 4 -40 0 -20 -4 -38 -4 -41 1 -3 5 -10 6 -16 3 -13 -9 -134
-8 -148 1 -5 3 -10 3 -10 -2 0 -9 -113 -8 -136 1 -7 3 -16 1 -19 -3 -3 -5 -21
-5 -40 -1 -19 4 -37 5 -40 1 -2 -4 -26 -5 -52 -1 -26 3 -65 3 -85 -1 -21 -3
-38 -3 -38 1 0 4 -18 4 -40 0 -22 -4 -42 -4 -45 0 -3 4 -22 4 -42 0 -21 -3
-50 -3 -65 1 -16 4 -30 4 -33 -1 -3 -4 -21 -4 -40 0 -19 4 -37 5 -40 1 -2 -4
-26 -5 -52 -1 -26 3 -65 3 -85 -1 -21 -3 -38 -3 -38 1 0 4 -18 4 -40 0 -22 -4
-42 -4 -45 0 -3 4 -22 4 -42 0 -21 -3 -50 -3 -65 1 -16 4 -30 4 -33 -1 -3 -4
-21 -4 -40 0 -19 4 -51 4 -70 0 -19 -4 -37 -4 -40 0 -3 4 -21 4 -40 0 -19 -4
-37 -4 -40 0 -3 4 -21 4 -40 0 -19 -4 -37 -4 -40 0 -3 4 -21 4 -40 0 -19 -4
-37 -4 -40 0 -3 4 -21 4 -40 0 -19 -4 -37 -4 -40 0 -3 4 -21 4 -40 0 -19 -4
-37 -4 -40 0 -3 4 -21 4 -40 0 -19 -4 -37 -4 -40 0 -3 4 -20 5 -37 1 -33 -7
-92 -5 -115 4 -7 2 -15 0 -18 -4 -3 -5 -20 -5 -39 -1 -19 4 -40 4 -46 0 -7 -4
-25 -4 -41 0 -15 5 -30 6 -33 2 -7 -6 -133 -5 -144 2 -5 3 -14 1 -21 -4 -8 -4
-26 -4 -42 0 -15 5 -30 6 -33 3 -7 -7 -96 -10 -96 -3 0 6 -129 2 -146 -4 -6
-2 -17 -1 -24 4 -7 4 -24 4 -39 0 -14 -4 -35 -4 -46 0 -11 4 -32 4 -46 0 -15
-4 -32 -4 -39 0 -7 5 -22 5 -34 1 -11 -5 -35 -5 -53 -1 -18 5 -36 4 -39 -1 -3
-5 -10 -7 -15 -3 -6 3 -36 5 -67 4 -31 -1 -64 -1 -72 -1 -61 3 -132 1 -139 -4
-5 -3 -12 -1 -15 4 -3 5 -21 5 -41 1 -19 -4 -37 -4 -40 0 -3 4 -21 4 -40 0
-19 -4 -37 -4 -40 0 -3 4 -20 5 -38 0 -18 -4 -42 -4 -52 0 -11 4 -29 4 -40 0z"/>
<path d="M6979 9498 c-5 -101 -2 -418 4 -418 5 0 5 -5 1 -11 -9 -16 -11 -229
-1 -229 5 0 5 -5 1 -11 -8 -14 -8 -225 1 -239 3 -5 3 -10 -2 -10 -4 0 -8 -31
-8 -70 0 -38 4 -70 8 -70 5 0 5 -5 1 -11 -9 -16 -11 -229 -1 -229 5 0 5 -5 2
-11 -10 -15 -11 -349 -2 -349 5 0 5 -5 2 -11 -11 -16 -12 -69 -2 -69 4 0 5 -5
2 -11 -11 -16 -12 -69 -2 -69 4 0 5 -5 2 -11 -11 -16 -12 -69 -2 -69 4 0 5 -5
2 -11 -11 -16 -12 -69 -2 -69 4 0 5 -5 2 -11 -11 -16 -12 -69 -2 -69 4 0 5 -5
2 -11 -11 -16 -12 -69 -2 -69 4 0 5 -5 2 -11 -11 -16 -12 -69 -2 -69 4 0 5 -5
1 -11 -10 -16 -11 -189 -1 -189 5 0 5 -5 1 -11 -9 -16 -11 -229 -1 -229 5 0 5
-5 1 -11 -9 -16 -11 -229 -1 -229 5 0 5 -5 1 -11 -9 -16 -11 -229 -1 -229 5 0
5 -5 2 -11 -9 -14 -10 -324 -1 -338 4 -6 4 -11 -1 -11 -4 0 -8 -18 -8 -40 0
-22 4 -40 8 -40 5 0 5 -5 2 -11 -11 -16 -12 -69 -2 -69 4 0 5 -5 2 -11 -11
-16 -12 -69 -2 -69 4 0 5 -5 2 -11 -11 -16 -12 -69 -2 -69 4 0 5 -5 2 -11 -11
-16 -12 -69 -2 -69 4 0 5 -5 2 -11 -11 -16 -12 -69 -2 -69 4 0 5 -5 2 -11 -11
-16 -12 -69 -2 -69 4 0 5 -5 2 -11 -11 -16 -12 -69 -2 -69 4 0 5 -5 2 -11 -10
-15 -11 -109 -2 -109 5 0 5 -5 1 -11 -9 -16 -11 -229 -1 -229 5 0 5 -5 1 -11
-8 -14 -8 -225 1 -239 3 -5 3 -10 -2 -10 -4 0 -8 -31 -8 -70 0 -38 4 -70 8
-70 5 0 5 -5 1 -11 -9 -16 -11 -229 -1 -229 5 0 5 -5 2 -11 -10 -15 -11 -349
-2 -349 5 0 5 -5 2 -11 -11 -16 -12 -69 -2 -69 4 0 5 -5 2 -11 -11 -16 -12
-69 -2 -69 4 0 5 -5 2 -11 -11 -16 -12 -69 -2 -69 4 0 5 -5 2 -11 -11 -16 -12
-69 -2 -69 4 0 5 -5 2 -11 -11 -16 -12 -69 -2 -69 4 0 5 -5 2 -11 -11 -16 -12
-69 -2 -69 4 0 5 -5 2 -11 -11 -16 -12 -69 -2 -69 4 0 5 -5 1 -11 -10 -16 -11
-189 -1 -189 5 0 5 -5 1 -11 -9 -16 -11 -229 -1 -229 5 0 5 -5 1 -11 -9 -16
-11 -229 -1 -229 5 0 5 -5 1 -11 -9 -16 -11 -229 -1 -229 5 0 5 -5 2 -11 -9
-14 -10 -324 -1 -338 4 -6 4 -11 -1 -11 -4 0 -8 -18 -8 -40 0 -22 4 -40 8 -40
5 0 5 -5 2 -11 -11 -16 -12 -69 -2 -69 4 0 5 -5 2 -11 -11 -16 -12 -69 -2 -69
4 0 5 -5 2 -11 -11 -16 -12 -69 -2 -69 4 0 5 -5 2 -11 -11 -16 -12 -69 -2 -69
4 0 5 -5 2 -11 -11 -16 -12 -69 -2 -69 4 0 5 -5 2 -11 -11 -16 -12 -69 -2 -69
4 0 5 -5 2 -11 -11 -16 -12 -69 -2 -69 4 0 5 -5 2 -11 -11 -16 -12 -69 -2 -69
4 0 5 -5 2 -11 -11 -16 -12 -69 -2 -69 4 0 5 -5 2 -11 -11 -16 -12 -69 -2 -69
4 0 5 -5 2 -11 -11 -16 -12 -69 -2 -69 4 0 5 -5 2 -11 -11 -16 -12 -69 -2 -69
4 0 5 -5 2 -11 -11 -16 -12 -69 -2 -69 4 0 5 -5 2 -11 -11 -16 -12 -69 -2 -69
4 0 5 -5 2 -11 -11 -16 -12 -69 -2 -69 4 0 5 -5 1 -11 -10 -16 -11 -189 -1
-189 5 0 5 -5 1 -11 -9 -16 -11 -229 -1 -229 5 0 5 -5 2 -11 -9 -14 -10 -324
-1 -338 4 -6 3 -11 -1 -11 -9 0 -9 -57 0 -66 6 -7 4747 4733 4747 4746 0 10
-4735 4750 -4745 4750 -3 0 -5 -6 -6 -12z"/>
<path d="M4562 7098 l-2012 -2011 2009 -2009 c1104 -1104 2010 -2008 2013
-2008 2 0 4 1809 4 4020 0 2211 0 4020 -1 4020 -1 0 -907 -905 -2013 -2012z"/>
</g>
</svg>
