<svg id="Ebene_1" xmlns="http://www.w3.org/2000/svg" viewBox="0 0 345.2 259.5"><style>.st0{fill:#fbb914}.st1{fill:#e40139}.st2{fill:#20a5c2}.st3{fill:#c6c6c6}.st4{fill:#020203}</style><path class="st0" d="M-367.2-511.3l38.6 89.5 89.6-38.5z"/><path class="st1" d="M10.5-387.6l5.8-123.7 123.7 5.8z"/><path class="st2" d="M301.6-960.1l-62.6-86.8-86.8 62.6zM121.8-1057.5l-80.9-112-112.1 80.8z"/><path class="st1" d="M93.9-604.2l158.4 27.4-27.5 158.4z"/><path class="st2" d="M378.1-983.7l-68.8-23.8 23.8-68.7z"/><path class="st0" d="M171-352L48.3-293.6l58.4 122.8zM-92.5-489.3l-89.5 127 127 89.4z"/><path class="st3" d="M259.7 202.5v33.6l-17.4 17.4V249.3l-.1-.1-14.1-14.2v-32.5l12.5 12.5.1.1h6.6l.1-.1 12.3-12.5m.3-.6l-12.9 12.9h-6.4l-12.9-12.9v33.2l14.3 14.3v4.7l17.9-17.9v-34.3zM250.7 67.5V96l-14.8 14.8v-3.5l-.1-.1-12.1-12.1V67.5l10.6 10.6.1.1h5.6l.1-.1 10.6-10.6m.2-.6l-11 11h-5.4l-11-11v28.3l12.1 12.1v4L250.9 96V66.9zM154.9 125.1v28.5l-14.8 14.8v-3.5l-.1-.1-12-12.1v-27.6l10.6 10.6.1.1h5.6l.1-.1 10.5-10.6m.3-.6l-11 11h-5.4l-11-11v28.3l12.1 12.1v4l15.3-15.3v-29.1zM93.5 106v5.4l-2.7 2.7V113.8l-.1-.1-2.5-2.5V106l1.9 1.9.1.1H91.5l.1-.1 1.9-1.9m.3-.6l-2.3 2.3h-1.1l-2.3-2.3v6l2.6 2.6v.8l3.2-3.2-.1-6.2zM293.2 160.7v13.4l-6.9 6.9V179.6l-.1-.1-5.8-5.8v-12.9l4.9 4.9.1.1H288.2l.1-.1 4.9-5m.2-.6l-5.3 5.3h-2.6l-5.3-5.3v13.7l5.9 5.9v1.9l7.4-7.4v-14.1h-.1zM185.3 197.5v5.4l-2.7 2.7V205.3l-.1-.1-2.5-2.5v-5.2l1.9 1.9.1.1H183.3l.1-.1 1.9-1.9m.2-.6l-2.3 2.3h-1.1l-2.3-2.3v6l2.6 2.6v.8l3.2-3.2-.1-6.2zM68.1 151.3v5.4l-2.7 2.7V159.1l-.1-.1-2.5-2.5v-5.2l1.9 1.9.1.1H66.1l.1-.1 1.9-1.9m.3-.6l-2.3 2.3H65l-2.3-2.3v6l2.6 2.6v.8l3.2-3.2-.1-6.2zM151.4 220.3v10.2l-5.2 5.2v-1l-.1-.1-4.4-4.4v-9.8l3.7 3.7.1.1h2.2l.1-.1 3.6-3.8m.3-.6l-4.1 4.1h-2l-4.1-4.1v10.5l4.5 4.5v1.5l5.7-5.7v-10.8zM248.7 35.1v10.2l-5.2 5.2v-1l-.1-.1L239 45v-9.8l3.7 3.7.1.1h2.2l.1-.1 3.6-3.8m.3-.6l-4.1 4.1h-2l-4.1-4.1V45l4.5 4.5V51l5.7-5.7V34.5zM212.8 112.2v7.8l-3.9 3.9v-.7l-.1-.1-3.4-3.4v-7.5l2.8 2.8.1.1H210.1l.1-.1 2.6-2.8m.3-.6l-3.2 3.2h-1.6l-3.2-3.2v8.2l3.5 3.5v1.2l4.4-4.4v-8.5h.1zM136.4 78.1v12.1l-6.2 6.2v-1.3l-.1-.1-5.3-5.3V78.1l4.4 4.4.1.1h2.6l.1-.1 4.4-4.4m.3-.6l-4.8 4.8h-2.4l-4.8-4.8V90l5.3 5.3V97l6.7-6.7V77.5zM327 228.6v12.1l-6.2 6.2v-1.3l-.1-.1-5.3-5.3v-11.7l4.4 4.4.1.1h2.6l.1-.1 4.4-4.3m.3-.6l-4.8 4.8h-2.4l-4.8-4.8v12.4l5.3 5.3v1.8l6.7-6.7V228z"/><path class="st4" d="M139-845v51.2l-26.2 26.2v-5.4l-.3-.3-22.2-22.2V-845l18.6 18.6.3.3H120l.3-.3L139-845m1-2.4l-20.3 20.3h-10l-20.3-20.3v52.4l22.5 22.5v7.4l28.2-28.2-.1-54.1z"/><path class="st4" d="M139-914.2v51.2l-26.2 26.2v-5.4l-.3-.3-22.2-22.2v-49.5l18.6 18.6.3.3H120l.3-.3 18.7-18.6m1-2.4l-20.3 20.3h-10l-20.3-20.3v52.4l22.5 22.5v7.4l28.2-28.2-.1-54.1z"/><path class="st3" d="M25.7 162.7v24.9l-12.9 12.9v-3l-.1-.1-10.4-10.7v-24.1l9.2 9.2.1.1H16.5l.1-.1 9.1-9.1m.3-.6l-9.6 9.6h-4.7L2 162.1v24.8l10.6 10.6v3.5L26 187.6v-25.5zM345 99.2v24.9L332.1 137v-3.1l-.1-.1-10.6-10.6v-24l9.2 9.2.1.1H335.6l.1-.1 9.3-9.2m.2-.6l-9.6 9.6h-4.7l-9.6-9.6v24.8l10.6 10.6v3.5l13.4-13.4-.1-25.5zM268.1 126.4v6.9l-3.5 3.5v-.5l-.1-.1-3.1-3.1v-6.7l2.4 2.4.1.1h1.6l.1-.1 2.5-2.4m.2-.6l-2.9 2.9H264l-2.9-2.9v7.4l3.2 3.2v1.1l4-4v-7.7zM42.4 14.2v26.6L28.6 54.5v-3.2l-.1-.1-11.2-11.3V14.2l9.8 9.8.1.1H32.5l.1-.1 9.8-9.8m.2-.6L32.4 23.9h-5.1L17 13.6V40l11.3 11.3v3.8l14.3-14.3V13.6zM127.6 3.3v43.6L105 69.5v-5.6l-.1-.1-18.3-18.3V3.3l16.2 16.2.1.1H111.3l.1-.1 16.2-16.2m.3-.6l-16.7 16.7H103L86.3 2.7v42.9L104.7 64v6.1L127.8 47V2.7h.1zM328.1 14.3v43.6l-22.6 22.6v-5.6l-.1-.1-18.3-18.3V14.3l16.2 16.2.1.1H311.8l.1-.1 16.2-16.2m.3-.6l-16.7 16.7h-8.2l-16.7-16.7v42.9L305.2 75v6.1L328.4 58V13.7zM192.6 31.4v21.1l-10.9 10.9v-2.5l-.1-.1-9-9V31.4l7.8 7.8.1.1H184.7l.1-.1 7.8-7.8m.3-.6l-8.2 8.2h-4l-8.2-8.2V52l9.1 9.1v3L193 52.7V30.8h-.1zM79 69.2v9.4l-4.8 4.8v-.9l-.1-.1-4.1-4.1v-9.1l3.4 3.4.1.1h2.1l.1-.1 3.3-3.4m.2-.6l-3.8 3.8h-1.9l-3.8-3.8v9.8l4.2 4.2V84l5.3-5.3V68.6z"/><path class="st4" d="M-37.3-775.8v51.2l-26.2 26.2v-5.4l-.3-.3-22.2-22.2v-49.5l18.6 18.6.3.3h10.8l.3-.3 18.7-18.6m1-2.4l-20.3 20.3h-10L-87-778.2v52.4l22.5 22.5v7.4l28.2-28.2v-54.1z"/><path class="st4" d="M-37.3-845v51.2l-26.2 26.2v-5.4l-.3-.3-22.2-22.2V-845l18.6 18.6.3.3h10.8l.3-.3 18.7-18.6m1-2.4l-20.3 20.3h-10L-87-847.4v52.4l22.5 22.5v7.4l28.2-28.2v-54.1z"/><path class="st4" d="M-37.3-914.2v51.2l-26.2 26.2v-5.4l-.3-.3-22.2-22.1v-49.5l18.6 18.6.3.3h10.8l.3-.3 18.7-18.7m1-2.4l-20.3 20.3h-10L-87-916.6v52.4l22.5 22.5v7.4l28.2-28.2v-54.1zM21.4-775.8v51.2l-26.2 26.2v-5.4l-.3-.3-22.2-22.2v-49.5l18.6 18.6.3.3H2.4l.3-.3 18.7-18.6m1-2.4L2.1-757.9h-10l-20.3-20.3v52.4l22.5 22.5v7.4l28.2-28.2v-54.1h-.1z"/><path class="st4" d="M21.4-845v51.2l-26.2 26.2v-5.4l-.3-.3-22.2-22.2V-845l18.6 18.6.3.3H2.4l.3-.3L21.4-845m1-2.4L2.1-827.1h-10l-20.3-20.3v52.4l22.5 22.5v7.4l28.2-28.2v-54.1h-.1z"/><path class="st4" d="M21.4-914.2v51.2l-26.2 26.2v-5.4l-.3-.3-22.2-22.2v-49.5l18.6 18.6.3.3H2.4l.3-.3 18.7-18.6m1-2.4L2.1-896.3h-10l-20.3-20.3v52.4l22.5 22.5v7.4l28.2-28.2v-54.1h-.1z"/><path class="st3" d="M111.1 193.8v42.9L88.8 259v-5.5l-.1-.1-18.1-18.1v-41.6l16 16 .1.1H95l.1-.1 16-15.9m.2-.6l-16.4 16.4h-8.1l-16.4-16.4v42.3l18.1 18.1v6l22.8-22.8v-43.6zM216.4 151.3V169l-9.1 9.1v-2l-.1-.1-7.6-7.6v-17.1l6.5 6.5.1.1h3.6l.1-.1 6.5-6.5m.2-.6l-6.9 6.9h-3.4l-6.9-6.9v17.8l7.6 7.6v2.5l9.6-9.6v-18.3zM54.4 105.1v17.1l-8.8 8.8V129.1l-.1-.1-7.3-7.3v-16.6l6.3 6.3.1.1h3.5l.1-.1 6.2-6.3m.3-.6l-6.7 6.7h-3.3l-6.7-6.7v17.3l7.4 7.4v2.4l9.3-9.3v-17.8z"/><path class="st4" d="M80.2-914.2v51.2L54-836.8v-5.4l-.3-.3-22.2-22.2v-49.5l18.6 18.6.3.3h10.8l.3-.3 18.7-18.6m1-2.4l-20.3 20.3h-10l-20.3-20.3v52.4L53-841.8v7.4l28.2-28.2v-54zM1962.1-414.9v54.8L1934-332v-5.9l-.3-.3-23.6-23.6v-53l20 20 .3.3h11.5l.3-.3 19.9-20.1m1-2.4l-21.7 21.7h-10.7l-21.7-21.7v55.8l23.9 23.9v7.9l30.1-30.1.1-57.5z"/><path class="st4" d="M1962.1-488.7v54.8l-28.1 28.1v-5.9l-.3-.3-23.6-23.6v-53l20 20 .3.3h11.5l.3-.3 19.9-20.1m1-2.4l-21.7 21.7h-10.7l-21.7-21.7v55.8l23.9 23.9v7.9l30.1-30.1.1-57.5z"/><path class="st4" d="M1962.1-562.4v54.8l-28.1 28.1v-5.9l-.3-.3-23.6-23.6v-53l20 20 .3.3h11.5l.3-.3 19.9-20.1m1-2.4l-21.7 21.7h-10.7l-21.7-21.7v55.8l23.9 23.9v7.9l30.1-30.1.1-57.5zM2024.7-414.9v54.8l-28.1 28.1v-5.9l-.3-.3-23.6-23.6v-53l20 20 .3.3h11.5l.3-.3 19.9-20.1m1-2.4l-21.7 21.7h-10.7l-21.7-21.7v55.8l23.9 23.9v7.9l30.1-30.1.1-57.5z"/><path class="st4" d="M2024.7-488.7v54.8l-28.1 28.1v-5.9l-.3-.3-23.6-23.6v-53l20 20 .3.3h11.5l.3-.3 19.9-20.1m1-2.4l-21.7 21.7h-10.7l-21.7-21.7v55.8l23.9 23.9v7.9l30.1-30.1.1-57.5z"/><path class="st4" d="M2024.7-562.4v54.8l-28.1 28.1v-5.9l-.3-.3-23.6-23.6v-53l20 20 .3.3h11.5l.3-.3 19.9-20.1m1-2.4l-21.7 21.7h-10.7l-21.7-21.7v55.8l23.9 23.9v7.9l30.1-30.1.1-57.5zM2087.4-414.9v54.8l-28.1 28.1v-5.9l-.3-.3-23.6-23.6v-53l20 20 .3.3h11.5l.3-.3 19.9-20.1m1-2.4l-21.7 21.7H2056l-21.7-21.7v55.8l23.9 23.9v7.9l30.1-30.1.1-57.5z"/><path class="st4" d="M2087.4-487.8v54.8l-28.1 28.1v-5.9l-.3-.3-23.6-23.6v-53l20 20 .3.3h11.5l.3-.3 19.9-20.1m1-2.4l-21.7 21.7H2056l-21.7-21.7v55.8l23.9 23.9v7.9l30.1-30.1.1-57.5z"/><path class="st4" d="M2087.4-562.4v54.8l-28.1 28.1v-5.9l-.3-.3-23.6-23.6v-53l20 20 .3.3h11.5l.3-.3 19.9-20.1m1-2.4l-21.7 21.7H2056l-21.7-21.7v55.8l23.9 23.9v7.9l30.1-30.1.1-57.5zM1774.1-414.9v54.8L1746-332v-5.9l-.3-.3-23.6-23.6v-53l20 20 .3.3h11.5l.3-.3 19.9-20.1m1-2.4l-21.7 21.7h-10.7l-21.7-21.7v55.8l23.9 23.9v7.9l30.1-30.1.1-57.5z"/><path class="st4" d="M1774.1-488.7v54.8l-28.1 28.1v-5.9l-.3-.3-23.6-23.6v-53l20 20 .3.3h11.5l.3-.3 19.9-20.1m1-2.4l-21.7 21.7h-10.7l-21.7-21.7v55.8l23.9 23.9v7.9l30.1-30.1.1-57.5z"/><path class="st4" d="M1774.1-562.4v54.8l-28.1 28.1v-5.9l-.3-.3-23.6-23.6v-53l20 20 .3.3h11.5l.3-.3 19.9-20.1m1-2.4l-21.7 21.7h-10.7l-21.7-21.7v55.8l23.9 23.9v7.9l30.1-30.1.1-57.5zM1836.7-414.9v54.8l-28.1 28.1v-5.9l-.3-.3-23.6-23.6v-53l20 20 .3.3h11.5l.3-.3 19.9-20.1m1-2.4l-21.7 21.7h-10.7l-21.7-21.7v55.8l23.9 23.9v7.9l30.1-30.1.1-57.5z"/><path class="st4" d="M1836.7-488.7v54.8l-28.1 28.1v-5.9l-.3-.3-23.6-23.6v-53l20 20 .3.3h11.5l.3-.3 19.9-20.1m1-2.4l-21.7 21.7h-10.7l-21.7-21.7v55.8l23.9 23.9v7.9l30.1-30.1.1-57.5z"/><path class="st4" d="M1836.7-562.4v54.8l-28.1 28.1v-5.9l-.3-.3-23.6-23.6v-53l20 20 .3.3h11.5l.3-.3 19.9-20.1m1-2.4l-21.7 21.7h-10.7l-21.7-21.7v55.8l23.9 23.9v7.9l30.1-30.1.1-57.5zM1899.4-414.9v54.8l-28.1 28.1v-5.9l-.3-.3-23.6-23.6v-53l20 20 .3.3h11.5l.3-.3 19.9-20.1m1-2.4l-21.7 21.7H1868l-21.7-21.7v55.8l23.9 23.9v7.9l30.1-30.1.1-57.5z"/><path class="st4" d="M1899.4-487.8v54.8l-28.1 28.1v-5.9l-.3-.3-23.6-23.6v-53l20 20 .3.3h11.5l.3-.3 19.9-20.1m1-2.4l-21.7 21.7H1868l-21.7-21.7v55.8l23.9 23.9v7.9l30.1-30.1.1-57.5z"/><path class="st4" d="M1899.4-562.4v54.8l-28.1 28.1v-5.9l-.3-.3-23.6-23.6v-53l20 20 .3.3h11.5l.3-.3 19.9-20.1m1-2.4l-21.7 21.7H1868l-21.7-21.7v55.8l23.9 23.9v7.9l30.1-30.1.1-57.5zM1586.1-414.9v54.8L1558-332v-5.9l-.3-.3-23.6-23.6v-53l20 20 .3.3h11.5l.3-.3 19.9-20.1m1-2.4l-21.7 21.7h-10.7l-21.7-21.7v55.8l23.9 23.9v7.9l30.1-30.1.1-57.5z"/><path class="st4" d="M1586.1-488.7v54.8l-28.1 28.1v-5.9l-.3-.3-23.6-23.6v-53l20 20 .3.3h11.5l.3-.3 19.9-20.1m1-2.4l-21.7 21.7h-10.7l-21.7-21.7v55.8l23.9 23.9v7.9l30.1-30.1.1-57.5z"/><path class="st4" d="M1586.1-562.4v54.8l-28.1 28.1v-5.9l-.3-.3-23.6-23.6v-53l20 20 .3.3h11.5l.3-.3 19.9-20.1m1-2.4l-21.7 21.7h-10.7l-21.7-21.7v55.8l23.9 23.9v7.9l30.1-30.1.1-57.5zM1648.8-414.9v54.8l-28.1 28.1v-5.9l-.3-.3-23.6-23.6v-53l20 20 .3.3h11.5l.3-.3 19.9-20.1m1-2.4l-21.7 21.7h-10.7l-21.7-21.7v55.8l23.9 23.9v7.9l30.1-30.1.1-57.5z"/><path class="st4" d="M1648.8-488.7v54.8l-28.1 28.1v-5.9l-.3-.3-23.6-23.6v-53l20 20 .3.3h11.5l.3-.3 19.9-20.1m1-2.4l-21.7 21.7h-10.7l-21.7-21.7v55.8l23.9 23.9v7.9l30.1-30.1.1-57.5z"/><path class="st4" d="M1648.8-562.4v54.8l-28.1 28.1v-5.9l-.3-.3-23.6-23.6v-53l20 20 .3.3h11.5l.3-.3 19.9-20.1m1-2.4l-21.7 21.7h-10.7l-21.7-21.7v55.8l23.9 23.9v7.9l30.1-30.1.1-57.5zM1711.4-414.9v54.8l-28.1 28.1v-5.9l-.3-.3-23.6-23.6v-53l20 20 .3.3h11.5l.3-.3 19.9-20.1m1-2.4l-21.7 21.7H1680l-21.7-21.7v55.8l23.9 23.9v7.9l30.1-30.1.1-57.5z"/><path class="st4" d="M1711.4-487.8v54.8l-28.1 28.1v-5.9l-.3-.3-23.6-23.6v-53l20 20 .3.3h11.5l.3-.3 19.9-20.1m1-2.4l-21.7 21.7H1680l-21.7-21.7v55.8l23.9 23.9v7.9l30.1-30.1.1-57.5z"/><path class="st4" d="M1711.4-562.4v54.8l-28.1 28.1v-5.9l-.3-.3-23.6-23.6v-53l20 20 .3.3h11.5l.3-.3 19.9-20.1m1-2.4l-21.7 21.7H1680l-21.7-21.7v55.8l23.9 23.9v7.9l30.1-30.1.1-57.5zM1398.1-414.9v54.8L1370-332v-5.9l-.3-.3-23.6-23.6v-53l20 20 .3.3h11.5l.3-.3 19.9-20.1m1-2.4l-21.7 21.7h-10.7l-21.7-21.7v55.8l23.9 23.9v7.9l30.1-30.1.1-57.5z"/><path class="st4" d="M1398.1-488.7v54.8l-28.1 28.1v-5.9l-.3-.3-23.6-23.6v-53l20 20 .3.3h11.5l.3-.3 19.9-20.1m1-2.4l-21.7 21.7h-10.7l-21.7-21.7v55.8l23.9 23.9v7.9l30.1-30.1.1-57.5z"/><path class="st4" d="M1398.1-562.4v54.8l-28.1 28.1v-5.9l-.3-.3-23.6-23.6v-53l20 20 .3.3h11.5l.3-.3 19.9-20.1m1-2.4l-21.7 21.7h-10.7l-21.7-21.7v55.8l23.9 23.9v7.9l30.1-30.1.1-57.5zM1460.8-414.9v54.8l-28.1 28.1v-5.9l-.3-.3-23.6-23.6v-53l20 20 .3.3h11.5l.3-.3 19.9-20.1m1-2.4l-21.7 21.7h-10.7l-21.7-21.7v55.8l23.9 23.9v7.9l30.1-30.1.1-57.5z"/><path class="st4" d="M1460.8-488.7v54.8l-28.1 28.1v-5.9l-.3-.3-23.6-23.6v-53l20 20 .3.3h11.5l.3-.3 19.9-20.1m1-2.4l-21.7 21.7h-10.7l-21.7-21.7v55.8l23.9 23.9v7.9l30.1-30.1.1-57.5z"/><path class="st4" d="M1460.8-562.4v54.8l-28.1 28.1v-5.9l-.3-.3-23.6-23.6v-53l20 20 .3.3h11.5l.3-.3 19.9-20.1m1-2.4l-21.7 21.7h-10.7l-21.7-21.7v55.8l23.9 23.9v7.9l30.1-30.1.1-57.5zM1523.4-414.9v54.8l-28.1 28.1v-5.9l-.3-.3-23.6-23.6v-53l20 20 .3.3h11.5l.3-.3 19.9-20.1m1-2.4l-21.7 21.7H1492l-21.7-21.7v55.8l23.9 23.9v7.9l30.1-30.1.1-57.5z"/><path class="st4" d="M1523.4-487.8v54.8l-28.1 28.1v-5.9l-.3-.3-23.6-23.6v-53l20 20 .3.3h11.5l.3-.3 19.9-20.1m1-2.4l-21.7 21.7H1492l-21.7-21.7v55.8l23.9 23.9v7.9l30.1-30.1.1-57.5z"/><path class="st4" d="M1523.4-562.4v54.8l-28.1 28.1v-5.9l-.3-.3-23.6-23.6v-53l20 20 .3.3h11.5l.3-.3 19.9-20.1m1-2.4l-21.7 21.7H1492l-21.7-21.7v55.8l23.9 23.9v7.9l30.1-30.1.1-57.5zM1210.2-414.9v54.8l-28.1 28.1v-5.9l-.3-.3-23.6-23.6v-53l20 20 .3.3h11.5l.3-.3 19.9-20.1m1-2.4l-21.7 21.7h-10.7l-21.7-21.7v55.8l23.9 23.9v7.9l30.1-30.1.1-57.5z"/><path class="st4" d="M1210.2-488.7v54.8l-28.1 28.1v-5.9l-.3-.3-23.6-23.6v-53l20 20 .3.3h11.5l.3-.3 19.9-20.1m1-2.4l-21.7 21.7h-10.7l-21.7-21.7v55.8l23.9 23.9v7.9l30.1-30.1.1-57.5z"/><path class="st4" d="M1210.2-562.4v54.8l-28.1 28.1v-5.9l-.3-.3-23.6-23.6v-53l20 20 .3.3h11.5l.3-.3 19.9-20.1m1-2.4l-21.7 21.7h-10.7l-21.7-21.7v55.8l23.9 23.9v7.9l30.1-30.1.1-57.5zM1272.8-414.9v54.8l-28.1 28.1v-5.9l-.3-.3-23.6-23.6v-53l20 20 .3.3h11.5l.3-.3 19.9-20.1m1-2.4l-21.7 21.7h-10.7l-21.7-21.7v55.8l23.9 23.9v7.9l30.1-30.1.1-57.5z"/><path class="st4" d="M1272.8-488.7v54.8l-28.1 28.1v-5.9l-.3-.3-23.6-23.6v-53l20 20 .3.3h11.5l.3-.3 19.9-20.1m1-2.4l-21.7 21.7h-10.7l-21.7-21.7v55.8l23.9 23.9v7.9l30.1-30.1.1-57.5z"/><path class="st4" d="M1272.8-562.4v54.8l-28.1 28.1v-5.9l-.3-.3-23.6-23.6v-53l20 20 .3.3h11.5l.3-.3 19.9-20.1m1-2.4l-21.7 21.7h-10.7l-21.7-21.7v55.8l23.9 23.9v7.9l30.1-30.1.1-57.5zM1335.5-414.9v54.8l-28.1 28.1v-5.9l-.3-.3-23.6-23.6v-53l20 20 .3.3h11.5l.3-.3 19.9-20.1m1-2.4l-21.7 21.7h-10.7l-21.7-21.7v55.8l23.9 23.9v7.9l30.1-30.1.1-57.5z"/><path class="st4" d="M1335.5-487.8v54.8l-28.1 28.1v-5.9l-.3-.3-23.6-23.6v-53l20 20 .3.3h11.5l.3-.3 19.9-20.1m1-2.4l-21.7 21.7h-10.7l-21.7-21.7v55.8l23.9 23.9v7.9l30.1-30.1.1-57.5z"/><path class="st4" d="M1335.5-562.4v54.8l-28.1 28.1v-5.9l-.3-.3-23.6-23.6v-53l20 20 .3.3h11.5l.3-.3 19.9-20.1m1-2.4l-21.7 21.7h-10.7l-21.7-21.7v55.8l23.9 23.9v7.9l30.1-30.1.1-57.5zM1022.2-414.9v54.8L994.1-332v-5.9l-.3-.3-23.6-23.6v-53l20 20 .3.3h11.5l.3-.3 19.9-20.1m1-2.4l-21.7 21.7h-10.7l-21.7-21.7v55.8l23.9 23.9v7.9l30.1-30.1v-57.5h.1z"/><path class="st4" d="M1022.2-488.7v54.8l-28.1 28.1v-5.9l-.3-.3-23.6-23.6v-53l20 20 .3.3h11.5l.3-.3 19.9-20.1m1-2.4l-21.7 21.7h-10.7l-21.7-21.7v55.8l23.9 23.9v7.9l30.1-30.1v-57.5h.1z"/><path class="st4" d="M1022.2-562.4v54.8l-28.1 28.1v-5.9l-.3-.3-23.6-23.6v-53l20 20 .3.3h11.5l.3-.3 19.9-20.1m1-2.4l-21.7 21.7h-10.7l-21.7-21.7v55.8l23.9 23.9v7.9l30.1-30.1v-57.5h.1zM1084.8-414.9v54.8l-28.1 28.1v-5.9l-.3-.3-23.6-23.6v-53l20 20 .3.3h11.5l.3-.3 19.9-20.1m1-2.4l-21.7 21.7h-10.7l-21.7-21.7v55.8l23.9 23.9v7.9l30.1-30.1.1-57.5z"/><path class="st4" d="M1084.8-488.7v54.8l-28.1 28.1v-5.9l-.3-.3-23.6-23.6v-53l20 20 .3.3h11.5l.3-.3 19.9-20.1m1-2.4l-21.7 21.7h-10.7l-21.7-21.7v55.8l23.9 23.9v7.9l30.1-30.1.1-57.5z"/><path class="st4" d="M1084.8-562.4v54.8l-28.1 28.1v-5.9l-.3-.3-23.6-23.6v-53l20 20 .3.3h11.5l.3-.3 19.9-20.1m1-2.4l-21.7 21.7h-10.7l-21.7-21.7v55.8l23.9 23.9v7.9l30.1-30.1.1-57.5zM1147.5-414.9v54.8l-28.1 28.1v-5.9l-.3-.3-23.6-23.6v-53l20 20 .3.3h11.5l.3-.3 19.9-20.1m1-2.4l-21.7 21.7h-10.7l-21.7-21.7v55.8l23.9 23.9v7.9l30.1-30.1.1-57.5z"/><path class="st4" d="M1147.5-487.8v54.8l-28.1 28.1v-5.9l-.3-.3-23.6-23.6v-53l20 20 .3.3h11.5l.3-.3 19.9-20.1m1-2.4l-21.7 21.7h-10.7l-21.7-21.7v55.8l23.9 23.9v7.9l30.1-30.1.1-57.5z"/><path class="st4" d="M1147.5-562.4v54.8l-28.1 28.1v-5.9l-.3-.3-23.6-23.6v-53l20 20 .3.3h11.5l.3-.3 19.9-20.1m1-2.4l-21.7 21.7h-10.7l-21.7-21.7v55.8l23.9 23.9v7.9l30.1-30.1.1-57.5zM834.2-414.9v54.8L806.1-332v-5.9l-.3-.3-23.6-23.6v-53l20 20 .3.3H814l.3-.3 19.9-20.1m1-2.4l-21.7 21.7h-10.7l-21.7-21.7v55.8l23.9 23.9v7.9l30.1-30.1v-57.5h.1z"/><path class="st4" d="M834.2-488.7v54.8l-28.1 28.1v-5.9l-.3-.3-23.6-23.6v-53l20 20 .3.3H814l.3-.3 19.9-20.1m1-2.4l-21.7 21.7h-10.7l-21.7-21.7v55.8l23.9 23.9v7.9l30.1-30.1v-57.5h.1z"/><path class="st4" d="M834.2-562.4v54.8l-28.1 28.1v-5.9l-.3-.3-23.6-23.6v-53l20 20 .3.3H814l.3-.3 19.9-20.1m1-2.4l-21.7 21.7h-10.7l-21.7-21.7v55.8l23.9 23.9v7.9l30.1-30.1v-57.5h.1zM896.9-414.9v54.8L868.8-332v-5.9l-.3-.3-23.6-23.6v-53l20 20 .3.3h11.5l.3-.3 19.9-20.1m1-2.4l-21.7 21.7h-10.7l-21.7-21.7v55.8l23.9 23.9v7.9l30.1-30.1v-57.5h.1z"/><path class="st4" d="M896.9-488.7v54.8l-28.1 28.1v-5.9l-.3-.3-23.6-23.6v-53l20 20 .3.3h11.5l.3-.3 19.9-20.1m1-2.4l-21.7 21.7h-10.7l-21.7-21.7v55.8l23.9 23.9v7.9l30.1-30.1v-57.5h.1z"/><path class="st4" d="M896.9-562.4v54.8l-28.1 28.1v-5.9l-.3-.3-23.6-23.6v-53l20 20 .3.3h11.5l.3-.3 19.9-20.1m1-2.4l-21.7 21.7h-10.7l-21.7-21.7v55.8l23.9 23.9v7.9l30.1-30.1v-57.5h.1zM959.5-414.9v54.8L931.4-332v-5.9l-.3-.3-23.6-23.6v-53l20 20 .3.3h11.5l.3-.3 19.9-20.1m1-2.4l-21.7 21.7h-10.7l-21.7-21.7v55.8l23.9 23.9v7.9l30.1-30.1v-57.5h.1z"/><path class="st4" d="M959.5-487.8v54.8l-28.1 28.1v-5.9l-.3-.3-23.6-23.6v-53l20 20 .3.3h11.5l.3-.3 19.9-20.1m1-2.4l-21.7 21.7h-10.7l-21.7-21.7v55.8l23.9 23.9v7.9l30.1-30.1v-57.5h.1z"/><path class="st4" d="M959.5-562.4v54.8l-28.1 28.1v-5.9l-.3-.3-23.6-23.6v-53l20 20 .3.3h11.5l.3-.3 19.9-20.1m1-2.4l-21.7 21.7h-10.7l-21.7-21.7v55.8l23.9 23.9v7.9l30.1-30.1v-57.5h.1zM646.2-414.9v54.8L618.1-332v-5.9l-.3-.3-23.6-23.6v-53l20 20 .3.3H626l.3-.3 19.9-20.1m1-2.4l-21.7 21.7h-10.7l-21.7-21.7v55.8l23.9 23.9v7.9l30.1-30.1v-57.5h.1z"/><path class="st4" d="M646.2-488.7v54.8l-28.1 28.1v-5.9l-.3-.3-23.6-23.6v-53l20 20 .3.3H626l.3-.3 19.9-20.1m1-2.4l-21.7 21.7h-10.7l-21.7-21.7v55.8l23.9 23.9v7.9l30.1-30.1v-57.5h.1z"/><path class="st4" d="M646.2-562.4v54.8l-28.1 28.1v-5.9l-.3-.3-23.6-23.6v-53l20 20 .3.3H626l.3-.3 19.9-20.1m1-2.4l-21.7 21.7h-10.7l-21.7-21.7v55.8l23.9 23.9v7.9l30.1-30.1v-57.5h.1zM708.9-414.9v54.8L680.8-332v-5.9l-.3-.3-23.6-23.6v-53l20 20 .3.3h11.5l.3-.3 19.9-20.1m1-2.4l-21.7 21.7h-10.7l-21.7-21.7v55.8l23.9 23.9v7.9l30.1-30.1v-57.5h.1z"/><path class="st4" d="M708.9-488.7v54.8l-28.1 28.1v-5.9l-.3-.3-23.6-23.6v-53l20 20 .3.3h11.5l.3-.3 19.9-20.1m1-2.4l-21.7 21.7h-10.7l-21.7-21.7v55.8l23.9 23.9v7.9l30.1-30.1v-57.5h.1z"/><path class="st4" d="M708.9-562.4v54.8l-28.1 28.1v-5.9l-.3-.3-23.6-23.6v-53l20 20 .3.3h11.5l.3-.3 19.9-20.1m1-2.4l-21.7 21.7h-10.7l-21.7-21.7v55.8l23.9 23.9v7.9l30.1-30.1v-57.5h.1zM771.6-414.9v54.8L743.5-332v-5.9l-.3-.3-23.6-23.6v-53l20 20 .3.3h11.5l.3-.3 19.9-20.1m1-2.4l-21.7 21.7h-10.7l-21.7-21.7v55.8l23.9 23.9v7.9l30.1-30.1v-57.5h.1z"/><path class="st4" d="M771.6-487.8v54.8l-28.1 28.1v-5.9l-.3-.3-23.6-23.6v-53l20 20 .3.3h11.5l.3-.3 19.9-20.1m1-2.4l-21.7 21.7h-10.7l-21.7-21.7v55.8l23.9 23.9v7.9l30.1-30.1v-57.5h.1z"/><path class="st4" d="M771.6-562.4v54.8l-28.1 28.1v-5.9l-.3-.3-23.6-23.6v-53l20 20 .3.3h11.5l.3-.3 19.9-20.1m1-2.4l-21.7 21.7h-10.7l-21.7-21.7v55.8l23.9 23.9v7.9l30.1-30.1v-57.5h.1z"/></svg>