<?xml version="1.0" encoding="utf-8"?>
<!-- Generator: Adobe Illustrator 21.0.0, SVG Export Plug-In . SVG Version: 6.00 Build 0)  -->
<svg version="1.1" id="Ebene_1" xmlns="http://www.w3.org/2000/svg" xmlns:xlink="http://www.w3.org/1999/xlink" x="0px" y="0px"
	 viewBox="0 0 345.2 259.5" style="enable-background:new 0 0 345.2 259.5;" xml:space="preserve">
<style type="text/css">
	.st0{fill:#FBB914;}
	.st1{fill:#E40139;}
	.st2{fill:#20A5C2;}
	.st3{fill:none;stroke:#ADADAD;stroke-width:0.25;stroke-miterlimit:10;}
	.st4{fill:#020203;}
</style>
<polygon class="st0" points="-367.2,-511.3 -328.6,-421.8 -239,-460.3 "/>
<polygon class="st1" points="10.5,-387.6 16.3,-511.3 140,-505.5 "/>
<polygon class="st2" points="301.6,-960.1 239,-1046.9 152.2,-984.3 "/>
<polygon class="st2" points="121.8,-1057.5 40.9,-1169.5 -71.2,-1088.7 "/>
<polygon class="st1" points="93.9,-604.2 252.3,-576.8 224.8,-418.4 "/>
<polygon class="st2" points="378.1,-983.7 309.3,-1007.5 333.1,-1076.2 "/>
<polygon class="st0" points="171,-352 48.3,-293.6 106.7,-170.8 "/>
<polygon class="st0" points="-92.5,-489.3 -182,-362.3 -55,-272.9 "/>
<g>
	<path class="st3" d="M259.7,202.5v33.6l-17.4,17.4v-4.1v-0.1l-0.1-0.1L228.1,235v-32.5l12.5,12.5l0.1,0.1h0.1h6.4h0.1l0.1-0.1
		L259.7,202.5 M260,201.9l-12.9,12.9h-6.4l-12.9-12.9v33.2l14.3,14.3v4.7l17.9-17.9L260,201.9L260,201.9z"/>
</g>
<path class="st0" d="M351.9-831.4"/>
<g>
	<path class="st3" d="M250.7,67.5V96l-14.8,14.8v-3.4v-0.1l-0.1-0.1l-12.1-12.1V67.5l10.6,10.6l0.1,0.1h0.1h5.4h0.1l0.1-0.1
		L250.7,67.5 M250.9,66.9l-11,11h-5.4l-11-11v28.3l12.1,12.1v4L250.9,96V66.9L250.9,66.9z"/>
</g>
<g>
	<path class="st3" d="M154.9,125.1v28.5l-14.8,14.8V165v-0.1l-0.1-0.1l-12-12.1v-27.6l10.6,10.6l0.1,0.1h0.1h5.4h0.1l0.1-0.1
		L154.9,125.1 M155.2,124.5l-11,11h-5.4l-11-11v28.3l12.1,12.1v4l15.3-15.3L155.2,124.5L155.2,124.5z"/>
</g>
<g>
	<path class="st3" d="M93.5,106v5.4l-2.7,2.7v-0.2v-0.1l-0.1-0.1l-2.5-2.5V106l1.9,1.9l0.1,0.1h0.1h1.1h0.1l0.1-0.1L93.5,106
		 M93.8,105.4l-2.3,2.3h-1.1l-2.3-2.3v6l2.6,2.6v0.8l3.2-3.2L93.8,105.4L93.8,105.4z"/>
</g>
<g>
	<path class="st3" d="M293.2,160.7v13.4l-6.9,6.9v-1.3v-0.1l-0.1-0.1l-5.8-5.8v-12.9l4.9,4.9l0.1,0.1h0.1h2.6h0.1l0.1-0.1
		L293.2,160.7 M293.4,160.1l-5.3,5.3h-2.6l-5.3-5.3v13.7l5.9,5.9v1.9l7.4-7.4v-14.1L293.4,160.1L293.4,160.1z"/>
</g>
<g>
	<path class="st3" d="M185.3,197.5v5.4l-2.7,2.7v-0.2v-0.1l-0.1-0.1l-2.5-2.5v-5.2l1.9,1.9l0.1,0.1h0.1h1.1h0.1l0.1-0.1L185.3,197.5
		 M185.5,196.9l-2.3,2.3h-1.1l-2.3-2.3v6l2.6,2.6v0.8l3.2-3.2L185.5,196.9L185.5,196.9z"/>
</g>
<g>
	<path class="st3" d="M68.1,151.3v5.4l-2.7,2.7v-0.2v-0.1l-0.1-0.1l-2.5-2.5v-5.2l1.9,1.9l0.1,0.1h0.1H66h0.1l0.1-0.1L68.1,151.3
		 M68.4,150.7l-2.3,2.3H65l-2.3-2.3v6l2.6,2.6v0.8l3.2-3.2L68.4,150.7L68.4,150.7z"/>
</g>
<g>
	<path class="st3" d="M151.4,220.3v10.2l-5.2,5.2v-0.9v-0.1l-0.1-0.1l-4.4-4.4v-9.8l3.7,3.7l0.1,0.1h0.1h2h0.1l0.1-0.1L151.4,220.3
		 M151.7,219.7l-4.1,4.1h-2l-4.1-4.1v10.5l4.5,4.5v1.5l5.7-5.7L151.7,219.7L151.7,219.7z"/>
</g>
<g>
	<path class="st3" d="M248.7,35.1v10.2l-5.2,5.2v-0.9v-0.1l-0.1-0.1L239,45v-9.8l3.7,3.7l0.1,0.1h0.1h2h0.1l0.1-0.1L248.7,35.1
		 M249,34.5l-4.1,4.1h-2l-4.1-4.1V45l4.5,4.5V51l5.7-5.7L249,34.5L249,34.5z"/>
</g>
<g>
	<path class="st3" d="M212.8,112.2v7.8l-3.9,3.9v-0.6v-0.1l-0.1-0.1l-3.4-3.4v-7.5l2.8,2.8l0.1,0.1h0.1h1.6h0.1l0.1-0.1L212.8,112.2
		 M213.1,111.6l-3.2,3.2h-1.6l-3.2-3.2v8.2l3.5,3.5v1.2l4.4-4.4v-8.5C213,111.6,213.1,111.6,213.1,111.6z"/>
</g>
<g>
	<path class="st3" d="M136.4,78.1v12.1l-6.2,6.2v-1.2v-0.1l-0.1-0.1l-5.3-5.3V78.1l4.4,4.4l0.1,0.1h0.1h2.4h0.1l0.1-0.1L136.4,78.1
		 M136.7,77.5l-4.8,4.8h-2.4l-4.8-4.8V90l5.3,5.3V97l6.7-6.7V77.5L136.7,77.5z"/>
</g>
<g>
	<path class="st3" d="M327,228.6v12.1l-6.2,6.2v-1.2v-0.1l-0.1-0.1l-5.3-5.3v-11.7l4.4,4.4l0.1,0.1h0.1h2.4h0.1l0.1-0.1L327,228.6
		 M327.3,228l-4.8,4.8h-2.4l-4.8-4.8v12.4l5.3,5.3v1.8l6.7-6.7L327.3,228L327.3,228z"/>
</g>
<g>
	<path class="st4" d="M139-845v51.2l-26.2,26.2v-5v-0.4l-0.3-0.3l-22.2-22.2V-845l18.6,18.6l0.3,0.3h0.4h10h0.4l0.3-0.3L139-845
		 M140-847.4l-20.3,20.3h-10l-20.3-20.3v52.4l22.5,22.5v7.4l28.2-28.2L140-847.4L140-847.4z"/>
</g>
<g>
	<path class="st4" d="M139-914.2v51.2l-26.2,26.2v-5v-0.4l-0.3-0.3l-22.2-22.2v-49.5l18.6,18.6l0.3,0.3h0.4h10h0.4l0.3-0.3
		L139-914.2 M140-916.6l-20.3,20.3h-10l-20.3-20.3v52.4l22.5,22.5v7.4l28.2-28.2L140-916.6L140-916.6z"/>
</g>
<g>
	<path class="st3" d="M25.7,162.7v24.9l-12.9,12.9v-2.9v-0.1l-0.1-0.1L2.3,186.7v-24.1l9.2,9.2l0.1,0.1h0.1h4.7h0.1l0.1-0.1
		L25.7,162.7 M26,162.1l-9.6,9.6h-4.7L2,162.1v24.8l10.6,10.6v3.5L26,187.6V162.1L26,162.1z"/>
</g>
<g>
	<path class="st3" d="M345,99.2v24.9L332.1,137v-3v-0.1l-0.1-0.1l-10.6-10.6v-24l9.2,9.2l0.1,0.1h0.1h4.7h0.1l0.1-0.1L345,99.2
		 M345.2,98.6l-9.6,9.6h-4.7l-9.6-9.6v24.8l10.6,10.6v3.5l13.4-13.4L345.2,98.6L345.2,98.6z"/>
</g>
<g>
	<path class="st3" d="M268.1,126.4v6.9l-3.5,3.5v-0.4v-0.1l-0.1-0.1l-3.1-3.1v-6.7l2.4,2.4l0.1,0.1h0.1h1.4h0.1l0.1-0.1L268.1,126.4
		 M268.3,125.8l-2.9,2.9H264l-2.9-2.9v7.4l3.2,3.2v1.1l4-4L268.3,125.8L268.3,125.8z"/>
</g>
<g>
	<path class="st3" d="M42.4,14.2v26.6L28.6,54.5v-3.1v-0.1l-0.1-0.1L17.3,39.9V14.2l9.8,9.8l0.1,0.1h0.1h5.1h0.1l0.1-0.1L42.4,14.2
		 M42.6,13.6L32.4,23.9h-5.1L17,13.6V40l11.3,11.3v3.8l14.3-14.3V13.6L42.6,13.6z"/>
</g>
<g>
	<path class="st3" d="M127.6,3.3v43.6L105,69.5V64v-0.1l-0.1-0.1L86.6,45.5V3.3l16.2,16.2l0.1,0.1h0.1h8.2h0.1l0.1-0.1L127.6,3.3
		 M127.9,2.7l-16.7,16.7H103L86.3,2.7v42.9L104.7,64v6.1L127.8,47L127.9,2.7L127.9,2.7z"/>
</g>
<g>
	<path class="st3" d="M328.1,14.3v43.6l-22.6,22.6V75v-0.1l-0.1-0.1l-18.3-18.3V14.3l16.2,16.2l0.1,0.1h0.1h8.2h0.1l0.1-0.1
		L328.1,14.3 M328.4,13.7l-16.7,16.7h-8.2l-16.7-16.7v42.9L305.2,75v6.1L328.4,58V13.7L328.4,13.7z"/>
</g>
<g>
	<path class="st3" d="M192.6,31.4v21.1l-10.9,10.9V61v-0.1l-0.1-0.1l-9-9V31.4l7.8,7.8l0.1,0.1h0.1h4h0.1l0.1-0.1L192.6,31.4
		 M192.9,30.8l-8.2,8.2h-4l-8.2-8.2V52l9.1,9.1v3L193,52.7V30.8H192.9z"/>
</g>
<g>
	<path class="st3" d="M79,69.2v9.4l-4.8,4.8v-0.8v-0.1l-0.1-0.1L70,78.3v-9.1l3.4,3.4l0.1,0.1h0.1h1.9h0.1l0.1-0.1L79,69.2
		 M79.2,68.6l-3.8,3.8h-1.9l-3.8-3.8v9.8l4.2,4.2V84l5.3-5.3L79.2,68.6L79.2,68.6z"/>
</g>
<g>
	<path class="st4" d="M-37.3-775.8v51.2l-26.2,26.2v-5v-0.4l-0.3-0.3L-86-726.3v-49.5l18.6,18.6l0.3,0.3h0.4h10h0.4l0.3-0.3
		L-37.3-775.8 M-36.3-778.2l-20.3,20.3h-10L-87-778.2v52.4l22.5,22.5v7.4l28.2-28.2V-778.2L-36.3-778.2z"/>
</g>
<g>
	<path class="st4" d="M-37.3-845v51.2l-26.2,26.2v-5v-0.4l-0.3-0.3L-86-795.5V-845l18.6,18.6l0.3,0.3h0.4h10h0.4l0.3-0.3L-37.3-845
		 M-36.3-847.4l-20.3,20.3h-10L-87-847.4v52.4l22.5,22.5v7.4l28.2-28.2V-847.4L-36.3-847.4z"/>
</g>
<g>
	<path class="st4" d="M-37.3-914.2v51.2l-26.2,26.2v-5v-0.4l-0.3-0.3L-86-864.6v-49.5l18.6,18.6l0.3,0.3h0.4h10h0.4l0.3-0.3
		L-37.3-914.2 M-36.3-916.6l-20.3,20.3h-10L-87-916.6v52.4l22.5,22.5v7.4l28.2-28.2V-916.6L-36.3-916.6z"/>
</g>
<g>
	<path class="st4" d="M21.4-775.8v51.2l-26.2,26.2v-5v-0.4l-0.3-0.3l-22.2-22.2v-49.5l18.6,18.6l0.3,0.3H-8H2h0.4l0.3-0.3
		L21.4-775.8 M22.4-778.2L2.1-757.9h-10l-20.3-20.3v52.4l22.5,22.5v7.4l28.2-28.2v-54.1L22.4-778.2L22.4-778.2z"/>
</g>
<g>
	<path class="st4" d="M21.4-845v51.2l-26.2,26.2v-5v-0.4l-0.3-0.3l-22.2-22.2V-845l18.6,18.6l0.3,0.3H-8H2h0.4l0.3-0.3L21.4-845
		 M22.4-847.4L2.1-827.1h-10l-20.3-20.3v52.4l22.5,22.5v7.4l28.2-28.2v-54.1L22.4-847.4L22.4-847.4z"/>
</g>
<g>
	<path class="st4" d="M21.4-914.2v51.2l-26.2,26.2v-5v-0.4l-0.3-0.3l-22.2-22.2v-49.5l18.6,18.6l0.3,0.3H-8H2h0.4l0.3-0.3
		L21.4-914.2 M22.4-916.6L2.1-896.3h-10l-20.3-20.3v52.4l22.5,22.5v7.4l28.2-28.2v-54.1L22.4-916.6L22.4-916.6z"/>
</g>
<g>
	<path class="st3" d="M111.1,193.8v42.9L88.8,259v-5.4v-0.1l-0.1-0.1l-18.1-18.1v-41.6l16,16l0.1,0.1h0.1h8.1H95l0.1-0.1
		L111.1,193.8 M111.3,193.2l-16.4,16.4h-8.1l-16.4-16.4v42.3l18.1,18.1v6l22.8-22.8V193.2L111.3,193.2z"/>
</g>
<g>
	<path class="st3" d="M216.4,151.3V169l-9.1,9.1v-1.9v-0.1l-0.1-0.1l-7.6-7.6v-17.1l6.5,6.5l0.1,0.1h0.1h3.4h0.1l0.1-0.1
		L216.4,151.3 M216.6,150.7l-6.9,6.9h-3.4l-6.9-6.9v17.8l7.6,7.6v2.5l9.6-9.6L216.6,150.7L216.6,150.7z"/>
</g>
<g>
	<path class="st3" d="M54.4,105.1v17.1l-8.8,8.8v-1.8v-0.1l-0.1-0.1l-7.3-7.3v-16.6l6.3,6.3l0.1,0.1h0.1H48h0.1l0.1-0.1L54.4,105.1
		 M54.7,104.5l-6.7,6.7h-3.3l-6.7-6.7v17.3l7.4,7.4v2.4l9.3-9.3V104.5L54.7,104.5z"/>
</g>
<g>
	<path class="st4" d="M80.2-914.2v51.2L54-836.8v-5v-0.4l-0.3-0.3l-22.2-22.2v-49.5l18.6,18.6l0.3,0.3h0.4h10h0.4l0.3-0.3
		L80.2-914.2 M81.2-916.6l-20.3,20.3h-10l-20.3-20.3v52.4L53-841.8v7.4l28.2-28.2V-916.6L81.2-916.6z"/>
</g>
<path class="st0" d="M1558-457.5"/>
<g>
	<path class="st4" d="M1962.1-414.9v54.8L1934-332v-5.5v-0.4l-0.3-0.3l-23.6-23.6v-53l20,20l0.3,0.3h0.4h10.7h0.4l0.3-0.3
		L1962.1-414.9 M1963.1-417.3l-21.7,21.7h-10.7l-21.7-21.7v55.8l23.9,23.9v7.9l30.1-30.1L1963.1-417.3L1963.1-417.3z"/>
</g>
<g>
	<path class="st4" d="M1962.1-488.7v54.8l-28.1,28.1v-5.5v-0.4l-0.3-0.3l-23.6-23.6v-53l20,20l0.3,0.3h0.4h10.7h0.4l0.3-0.3
		L1962.1-488.7 M1963.1-491.1l-21.7,21.7h-10.7l-21.7-21.7v55.8l23.9,23.9v7.9l30.1-30.1L1963.1-491.1L1963.1-491.1z"/>
</g>
<g>
	<path class="st4" d="M1962.1-562.4v54.8l-28.1,28.1v-5.5v-0.4l-0.3-0.3l-23.6-23.6v-53l20,20l0.3,0.3h0.4h10.7h0.4l0.3-0.3
		L1962.1-562.4 M1963.1-564.8l-21.7,21.7h-10.7l-21.7-21.7v55.8l23.9,23.9v7.9l30.1-30.1L1963.1-564.8L1963.1-564.8z"/>
</g>
<g>
	<path class="st4" d="M2024.7-414.9v54.8l-28.1,28.1v-5.5v-0.4l-0.3-0.3l-23.6-23.6v-53l20,20l0.3,0.3h0.4h10.7h0.4l0.3-0.3
		L2024.7-414.9 M2025.7-417.3l-21.7,21.7h-10.7l-21.7-21.7v55.8l23.9,23.9v7.9l30.1-30.1L2025.7-417.3L2025.7-417.3z"/>
</g>
<g>
	<path class="st4" d="M2024.7-488.7v54.8l-28.1,28.1v-5.5v-0.4l-0.3-0.3l-23.6-23.6v-53l20,20l0.3,0.3h0.4h10.7h0.4l0.3-0.3
		L2024.7-488.7 M2025.7-491.1l-21.7,21.7h-10.7l-21.7-21.7v55.8l23.9,23.9v7.9l30.1-30.1L2025.7-491.1L2025.7-491.1z"/>
</g>
<g>
	<path class="st4" d="M2024.7-562.4v54.8l-28.1,28.1v-5.5v-0.4l-0.3-0.3l-23.6-23.6v-53l20,20l0.3,0.3h0.4h10.7h0.4l0.3-0.3
		L2024.7-562.4 M2025.7-564.8l-21.7,21.7h-10.7l-21.7-21.7v55.8l23.9,23.9v7.9l30.1-30.1L2025.7-564.8L2025.7-564.8z"/>
</g>
<g>
	<path class="st4" d="M2087.4-414.9v54.8l-28.1,28.1v-5.5v-0.4l-0.3-0.3l-23.6-23.6v-53l20,20l0.3,0.3h0.4h10.7h0.4l0.3-0.3
		L2087.4-414.9 M2088.4-417.3l-21.7,21.7H2056l-21.7-21.7v55.8l23.9,23.9v7.9l30.1-30.1L2088.4-417.3L2088.4-417.3z"/>
</g>
<g>
	<path class="st4" d="M2087.4-487.8v54.8l-28.1,28.1v-5.5v-0.4l-0.3-0.3l-23.6-23.6v-53l20,20l0.3,0.3h0.4h10.7h0.4l0.3-0.3
		L2087.4-487.8 M2088.4-490.2l-21.7,21.7H2056l-21.7-21.7v55.8l23.9,23.9v7.9l30.1-30.1L2088.4-490.2L2088.4-490.2z"/>
</g>
<g>
	<path class="st4" d="M2087.4-562.4v54.8l-28.1,28.1v-5.5v-0.4l-0.3-0.3l-23.6-23.6v-53l20,20l0.3,0.3h0.4h10.7h0.4l0.3-0.3
		L2087.4-562.4 M2088.4-564.8l-21.7,21.7H2056l-21.7-21.7v55.8l23.9,23.9v7.9l30.1-30.1L2088.4-564.8L2088.4-564.8z"/>
</g>
<g>
	<path class="st4" d="M1774.1-414.9v54.8L1746-332v-5.5v-0.4l-0.3-0.3l-23.6-23.6v-53l20,20l0.3,0.3h0.4h10.7h0.4l0.3-0.3
		L1774.1-414.9 M1775.1-417.3l-21.7,21.7h-10.7l-21.7-21.7v55.8l23.9,23.9v7.9l30.1-30.1L1775.1-417.3L1775.1-417.3z"/>
</g>
<g>
	<path class="st4" d="M1774.1-488.7v54.8l-28.1,28.1v-5.5v-0.4l-0.3-0.3l-23.6-23.6v-53l20,20l0.3,0.3h0.4h10.7h0.4l0.3-0.3
		L1774.1-488.7 M1775.1-491.1l-21.7,21.7h-10.7l-21.7-21.7v55.8l23.9,23.9v7.9l30.1-30.1L1775.1-491.1L1775.1-491.1z"/>
</g>
<g>
	<path class="st4" d="M1774.1-562.4v54.8l-28.1,28.1v-5.5v-0.4l-0.3-0.3l-23.6-23.6v-53l20,20l0.3,0.3h0.4h10.7h0.4l0.3-0.3
		L1774.1-562.4 M1775.1-564.8l-21.7,21.7h-10.7l-21.7-21.7v55.8l23.9,23.9v7.9l30.1-30.1L1775.1-564.8L1775.1-564.8z"/>
</g>
<g>
	<path class="st4" d="M1836.7-414.9v54.8l-28.1,28.1v-5.5v-0.4l-0.3-0.3l-23.6-23.6v-53l20,20l0.3,0.3h0.4h10.7h0.4l0.3-0.3
		L1836.7-414.9 M1837.7-417.3l-21.7,21.7h-10.7l-21.7-21.7v55.8l23.9,23.9v7.9l30.1-30.1L1837.7-417.3L1837.7-417.3z"/>
</g>
<g>
	<path class="st4" d="M1836.7-488.7v54.8l-28.1,28.1v-5.5v-0.4l-0.3-0.3l-23.6-23.6v-53l20,20l0.3,0.3h0.4h10.7h0.4l0.3-0.3
		L1836.7-488.7 M1837.7-491.1l-21.7,21.7h-10.7l-21.7-21.7v55.8l23.9,23.9v7.9l30.1-30.1L1837.7-491.1L1837.7-491.1z"/>
</g>
<g>
	<path class="st4" d="M1836.7-562.4v54.8l-28.1,28.1v-5.5v-0.4l-0.3-0.3l-23.6-23.6v-53l20,20l0.3,0.3h0.4h10.7h0.4l0.3-0.3
		L1836.7-562.4 M1837.7-564.8l-21.7,21.7h-10.7l-21.7-21.7v55.8l23.9,23.9v7.9l30.1-30.1L1837.7-564.8L1837.7-564.8z"/>
</g>
<g>
	<path class="st4" d="M1899.4-414.9v54.8l-28.1,28.1v-5.5v-0.4l-0.3-0.3l-23.6-23.6v-53l20,20l0.3,0.3h0.4h10.7h0.4l0.3-0.3
		L1899.4-414.9 M1900.4-417.3l-21.7,21.7H1868l-21.7-21.7v55.8l23.9,23.9v7.9l30.1-30.1L1900.4-417.3L1900.4-417.3z"/>
</g>
<g>
	<path class="st4" d="M1899.4-487.8v54.8l-28.1,28.1v-5.5v-0.4l-0.3-0.3l-23.6-23.6v-53l20,20l0.3,0.3h0.4h10.7h0.4l0.3-0.3
		L1899.4-487.8 M1900.4-490.2l-21.7,21.7H1868l-21.7-21.7v55.8l23.9,23.9v7.9l30.1-30.1L1900.4-490.2L1900.4-490.2z"/>
</g>
<g>
	<path class="st4" d="M1899.4-562.4v54.8l-28.1,28.1v-5.5v-0.4l-0.3-0.3l-23.6-23.6v-53l20,20l0.3,0.3h0.4h10.7h0.4l0.3-0.3
		L1899.4-562.4 M1900.4-564.8l-21.7,21.7H1868l-21.7-21.7v55.8l23.9,23.9v7.9l30.1-30.1L1900.4-564.8L1900.4-564.8z"/>
</g>
<g>
	<path class="st4" d="M1586.1-414.9v54.8L1558-332v-5.5v-0.4l-0.3-0.3l-23.6-23.6v-53l20,20l0.3,0.3h0.4h10.7h0.4l0.3-0.3
		L1586.1-414.9 M1587.1-417.3l-21.7,21.7h-10.7l-21.7-21.7v55.8l23.9,23.9v7.9l30.1-30.1L1587.1-417.3L1587.1-417.3z"/>
</g>
<g>
	<path class="st4" d="M1586.1-488.7v54.8l-28.1,28.1v-5.5v-0.4l-0.3-0.3l-23.6-23.6v-53l20,20l0.3,0.3h0.4h10.7h0.4l0.3-0.3
		L1586.1-488.7 M1587.1-491.1l-21.7,21.7h-10.7l-21.7-21.7v55.8l23.9,23.9v7.9l30.1-30.1L1587.1-491.1L1587.1-491.1z"/>
</g>
<g>
	<path class="st4" d="M1586.1-562.4v54.8l-28.1,28.1v-5.5v-0.4l-0.3-0.3l-23.6-23.6v-53l20,20l0.3,0.3h0.4h10.7h0.4l0.3-0.3
		L1586.1-562.4 M1587.1-564.8l-21.7,21.7h-10.7l-21.7-21.7v55.8l23.9,23.9v7.9l30.1-30.1L1587.1-564.8L1587.1-564.8z"/>
</g>
<g>
	<path class="st4" d="M1648.8-414.9v54.8l-28.1,28.1v-5.5v-0.4l-0.3-0.3l-23.6-23.6v-53l20,20l0.3,0.3h0.4h10.7h0.4l0.3-0.3
		L1648.8-414.9 M1649.8-417.3l-21.7,21.7h-10.7l-21.7-21.7v55.8l23.9,23.9v7.9l30.1-30.1L1649.8-417.3L1649.8-417.3z"/>
</g>
<g>
	<path class="st4" d="M1648.8-488.7v54.8l-28.1,28.1v-5.5v-0.4l-0.3-0.3l-23.6-23.6v-53l20,20l0.3,0.3h0.4h10.7h0.4l0.3-0.3
		L1648.8-488.7 M1649.8-491.1l-21.7,21.7h-10.7l-21.7-21.7v55.8l23.9,23.9v7.9l30.1-30.1L1649.8-491.1L1649.8-491.1z"/>
</g>
<g>
	<path class="st4" d="M1648.8-562.4v54.8l-28.1,28.1v-5.5v-0.4l-0.3-0.3l-23.6-23.6v-53l20,20l0.3,0.3h0.4h10.7h0.4l0.3-0.3
		L1648.8-562.4 M1649.8-564.8l-21.7,21.7h-10.7l-21.7-21.7v55.8l23.9,23.9v7.9l30.1-30.1L1649.8-564.8L1649.8-564.8z"/>
</g>
<g>
	<path class="st4" d="M1711.4-414.9v54.8l-28.1,28.1v-5.5v-0.4l-0.3-0.3l-23.6-23.6v-53l20,20l0.3,0.3h0.4h10.7h0.4l0.3-0.3
		L1711.4-414.9 M1712.4-417.3l-21.7,21.7H1680l-21.7-21.7v55.8l23.9,23.9v7.9l30.1-30.1L1712.4-417.3L1712.4-417.3z"/>
</g>
<g>
	<path class="st4" d="M1711.4-487.8v54.8l-28.1,28.1v-5.5v-0.4l-0.3-0.3l-23.6-23.6v-53l20,20l0.3,0.3h0.4h10.7h0.4l0.3-0.3
		L1711.4-487.8 M1712.4-490.2l-21.7,21.7H1680l-21.7-21.7v55.8l23.9,23.9v7.9l30.1-30.1L1712.4-490.2L1712.4-490.2z"/>
</g>
<g>
	<path class="st4" d="M1711.4-562.4v54.8l-28.1,28.1v-5.5v-0.4l-0.3-0.3l-23.6-23.6v-53l20,20l0.3,0.3h0.4h10.7h0.4l0.3-0.3
		L1711.4-562.4 M1712.4-564.8l-21.7,21.7H1680l-21.7-21.7v55.8l23.9,23.9v7.9l30.1-30.1L1712.4-564.8L1712.4-564.8z"/>
</g>
<g>
	<path class="st4" d="M1398.1-414.9v54.8L1370-332v-5.5v-0.4l-0.3-0.3l-23.6-23.6v-53l20,20l0.3,0.3h0.4h10.7h0.4l0.3-0.3
		L1398.1-414.9 M1399.1-417.3l-21.7,21.7h-10.7l-21.7-21.7v55.8l23.9,23.9v7.9l30.1-30.1L1399.1-417.3L1399.1-417.3z"/>
</g>
<g>
	<path class="st4" d="M1398.1-488.7v54.8l-28.1,28.1v-5.5v-0.4l-0.3-0.3l-23.6-23.6v-53l20,20l0.3,0.3h0.4h10.7h0.4l0.3-0.3
		L1398.1-488.7 M1399.1-491.1l-21.7,21.7h-10.7l-21.7-21.7v55.8l23.9,23.9v7.9l30.1-30.1L1399.1-491.1L1399.1-491.1z"/>
</g>
<g>
	<path class="st4" d="M1398.1-562.4v54.8l-28.1,28.1v-5.5v-0.4l-0.3-0.3l-23.6-23.6v-53l20,20l0.3,0.3h0.4h10.7h0.4l0.3-0.3
		L1398.1-562.4 M1399.1-564.8l-21.7,21.7h-10.7l-21.7-21.7v55.8l23.9,23.9v7.9l30.1-30.1L1399.1-564.8L1399.1-564.8z"/>
</g>
<g>
	<path class="st4" d="M1460.8-414.9v54.8l-28.1,28.1v-5.5v-0.4l-0.3-0.3l-23.6-23.6v-53l20,20l0.3,0.3h0.4h10.7h0.4l0.3-0.3
		L1460.8-414.9 M1461.8-417.3l-21.7,21.7h-10.7l-21.7-21.7v55.8l23.9,23.9v7.9l30.1-30.1L1461.8-417.3L1461.8-417.3z"/>
</g>
<g>
	<path class="st4" d="M1460.8-488.7v54.8l-28.1,28.1v-5.5v-0.4l-0.3-0.3l-23.6-23.6v-53l20,20l0.3,0.3h0.4h10.7h0.4l0.3-0.3
		L1460.8-488.7 M1461.8-491.1l-21.7,21.7h-10.7l-21.7-21.7v55.8l23.9,23.9v7.9l30.1-30.1L1461.8-491.1L1461.8-491.1z"/>
</g>
<g>
	<path class="st4" d="M1460.8-562.4v54.8l-28.1,28.1v-5.5v-0.4l-0.3-0.3l-23.6-23.6v-53l20,20l0.3,0.3h0.4h10.7h0.4l0.3-0.3
		L1460.8-562.4 M1461.8-564.8l-21.7,21.7h-10.7l-21.7-21.7v55.8l23.9,23.9v7.9l30.1-30.1L1461.8-564.8L1461.8-564.8z"/>
</g>
<g>
	<path class="st4" d="M1523.4-414.9v54.8l-28.1,28.1v-5.5v-0.4l-0.3-0.3l-23.6-23.6v-53l20,20l0.3,0.3h0.4h10.7h0.4l0.3-0.3
		L1523.4-414.9 M1524.4-417.3l-21.7,21.7H1492l-21.7-21.7v55.8l23.9,23.9v7.9l30.1-30.1L1524.4-417.3L1524.4-417.3z"/>
</g>
<g>
	<path class="st4" d="M1523.4-487.8v54.8l-28.1,28.1v-5.5v-0.4l-0.3-0.3l-23.6-23.6v-53l20,20l0.3,0.3h0.4h10.7h0.4l0.3-0.3
		L1523.4-487.8 M1524.4-490.2l-21.7,21.7H1492l-21.7-21.7v55.8l23.9,23.9v7.9l30.1-30.1L1524.4-490.2L1524.4-490.2z"/>
</g>
<g>
	<path class="st4" d="M1523.4-562.4v54.8l-28.1,28.1v-5.5v-0.4l-0.3-0.3l-23.6-23.6v-53l20,20l0.3,0.3h0.4h10.7h0.4l0.3-0.3
		L1523.4-562.4 M1524.4-564.8l-21.7,21.7H1492l-21.7-21.7v55.8l23.9,23.9v7.9l30.1-30.1L1524.4-564.8L1524.4-564.8z"/>
</g>
<path class="st0" d="M806.1-457.5"/>
<g>
	<path class="st4" d="M1210.2-414.9v54.8l-28.1,28.1v-5.5v-0.4l-0.3-0.3l-23.6-23.6v-53l20,20l0.3,0.3h0.4h10.7h0.4l0.3-0.3
		L1210.2-414.9 M1211.2-417.3l-21.7,21.7h-10.7l-21.7-21.7v55.8l23.9,23.9v7.9l30.1-30.1L1211.2-417.3L1211.2-417.3z"/>
</g>
<g>
	<path class="st4" d="M1210.2-488.7v54.8l-28.1,28.1v-5.5v-0.4l-0.3-0.3l-23.6-23.6v-53l20,20l0.3,0.3h0.4h10.7h0.4l0.3-0.3
		L1210.2-488.7 M1211.2-491.1l-21.7,21.7h-10.7l-21.7-21.7v55.8l23.9,23.9v7.9l30.1-30.1L1211.2-491.1L1211.2-491.1z"/>
</g>
<g>
	<path class="st4" d="M1210.2-562.4v54.8l-28.1,28.1v-5.5v-0.4l-0.3-0.3l-23.6-23.6v-53l20,20l0.3,0.3h0.4h10.7h0.4l0.3-0.3
		L1210.2-562.4 M1211.2-564.8l-21.7,21.7h-10.7l-21.7-21.7v55.8l23.9,23.9v7.9l30.1-30.1L1211.2-564.8L1211.2-564.8z"/>
</g>
<g>
	<path class="st4" d="M1272.8-414.9v54.8l-28.1,28.1v-5.5v-0.4l-0.3-0.3l-23.6-23.6v-53l20,20l0.3,0.3h0.4h10.7h0.4l0.3-0.3
		L1272.8-414.9 M1273.8-417.3l-21.7,21.7h-10.7l-21.7-21.7v55.8l23.9,23.9v7.9l30.1-30.1L1273.8-417.3L1273.8-417.3z"/>
</g>
<g>
	<path class="st4" d="M1272.8-488.7v54.8l-28.1,28.1v-5.5v-0.4l-0.3-0.3l-23.6-23.6v-53l20,20l0.3,0.3h0.4h10.7h0.4l0.3-0.3
		L1272.8-488.7 M1273.8-491.1l-21.7,21.7h-10.7l-21.7-21.7v55.8l23.9,23.9v7.9l30.1-30.1L1273.8-491.1L1273.8-491.1z"/>
</g>
<g>
	<path class="st4" d="M1272.8-562.4v54.8l-28.1,28.1v-5.5v-0.4l-0.3-0.3l-23.6-23.6v-53l20,20l0.3,0.3h0.4h10.7h0.4l0.3-0.3
		L1272.8-562.4 M1273.8-564.8l-21.7,21.7h-10.7l-21.7-21.7v55.8l23.9,23.9v7.9l30.1-30.1L1273.8-564.8L1273.8-564.8z"/>
</g>
<g>
	<path class="st4" d="M1335.5-414.9v54.8l-28.1,28.1v-5.5v-0.4l-0.3-0.3l-23.6-23.6v-53l20,20l0.3,0.3h0.4h10.7h0.4l0.3-0.3
		L1335.5-414.9 M1336.5-417.3l-21.7,21.7h-10.7l-21.7-21.7v55.8l23.9,23.9v7.9l30.1-30.1L1336.5-417.3L1336.5-417.3z"/>
</g>
<g>
	<path class="st4" d="M1335.5-487.8v54.8l-28.1,28.1v-5.5v-0.4l-0.3-0.3l-23.6-23.6v-53l20,20l0.3,0.3h0.4h10.7h0.4l0.3-0.3
		L1335.5-487.8 M1336.5-490.2l-21.7,21.7h-10.7l-21.7-21.7v55.8l23.9,23.9v7.9l30.1-30.1L1336.5-490.2L1336.5-490.2z"/>
</g>
<g>
	<path class="st4" d="M1335.5-562.4v54.8l-28.1,28.1v-5.5v-0.4l-0.3-0.3l-23.6-23.6v-53l20,20l0.3,0.3h0.4h10.7h0.4l0.3-0.3
		L1335.5-562.4 M1336.5-564.8l-21.7,21.7h-10.7l-21.7-21.7v55.8l23.9,23.9v7.9l30.1-30.1L1336.5-564.8L1336.5-564.8z"/>
</g>
<g>
	<path class="st4" d="M1022.2-414.9v54.8L994.1-332v-5.5v-0.4l-0.3-0.3l-23.6-23.6v-53l20,20l0.3,0.3h0.4h10.7h0.4l0.3-0.3
		L1022.2-414.9 M1023.2-417.3l-21.7,21.7h-10.7l-21.7-21.7v55.8l23.9,23.9v7.9l30.1-30.1v-57.5L1023.2-417.3L1023.2-417.3z"/>
</g>
<g>
	<path class="st4" d="M1022.2-488.7v54.8l-28.1,28.1v-5.5v-0.4l-0.3-0.3l-23.6-23.6v-53l20,20l0.3,0.3h0.4h10.7h0.4l0.3-0.3
		L1022.2-488.7 M1023.2-491.1l-21.7,21.7h-10.7l-21.7-21.7v55.8l23.9,23.9v7.9l30.1-30.1v-57.5L1023.2-491.1L1023.2-491.1z"/>
</g>
<g>
	<path class="st4" d="M1022.2-562.4v54.8l-28.1,28.1v-5.5v-0.4l-0.3-0.3l-23.6-23.6v-53l20,20l0.3,0.3h0.4h10.7h0.4l0.3-0.3
		L1022.2-562.4 M1023.2-564.8l-21.7,21.7h-10.7l-21.7-21.7v55.8l23.9,23.9v7.9l30.1-30.1v-57.5L1023.2-564.8L1023.2-564.8z"/>
</g>
<g>
	<path class="st4" d="M1084.8-414.9v54.8l-28.1,28.1v-5.5v-0.4l-0.3-0.3l-23.6-23.6v-53l20,20l0.3,0.3h0.4h10.7h0.4l0.3-0.3
		L1084.8-414.9 M1085.8-417.3l-21.7,21.7h-10.7l-21.7-21.7v55.8l23.9,23.9v7.9l30.1-30.1L1085.8-417.3L1085.8-417.3z"/>
</g>
<g>
	<path class="st4" d="M1084.8-488.7v54.8l-28.1,28.1v-5.5v-0.4l-0.3-0.3l-23.6-23.6v-53l20,20l0.3,0.3h0.4h10.7h0.4l0.3-0.3
		L1084.8-488.7 M1085.8-491.1l-21.7,21.7h-10.7l-21.7-21.7v55.8l23.9,23.9v7.9l30.1-30.1L1085.8-491.1L1085.8-491.1z"/>
</g>
<g>
	<path class="st4" d="M1084.8-562.4v54.8l-28.1,28.1v-5.5v-0.4l-0.3-0.3l-23.6-23.6v-53l20,20l0.3,0.3h0.4h10.7h0.4l0.3-0.3
		L1084.8-562.4 M1085.8-564.8l-21.7,21.7h-10.7l-21.7-21.7v55.8l23.9,23.9v7.9l30.1-30.1L1085.8-564.8L1085.8-564.8z"/>
</g>
<g>
	<path class="st4" d="M1147.5-414.9v54.8l-28.1,28.1v-5.5v-0.4l-0.3-0.3l-23.6-23.6v-53l20,20l0.3,0.3h0.4h10.7h0.4l0.3-0.3
		L1147.5-414.9 M1148.5-417.3l-21.7,21.7h-10.7l-21.7-21.7v55.8l23.9,23.9v7.9l30.1-30.1L1148.5-417.3L1148.5-417.3z"/>
</g>
<g>
	<path class="st4" d="M1147.5-487.8v54.8l-28.1,28.1v-5.5v-0.4l-0.3-0.3l-23.6-23.6v-53l20,20l0.3,0.3h0.4h10.7h0.4l0.3-0.3
		L1147.5-487.8 M1148.5-490.2l-21.7,21.7h-10.7l-21.7-21.7v55.8l23.9,23.9v7.9l30.1-30.1L1148.5-490.2L1148.5-490.2z"/>
</g>
<g>
	<path class="st4" d="M1147.5-562.4v54.8l-28.1,28.1v-5.5v-0.4l-0.3-0.3l-23.6-23.6v-53l20,20l0.3,0.3h0.4h10.7h0.4l0.3-0.3
		L1147.5-562.4 M1148.5-564.8l-21.7,21.7h-10.7l-21.7-21.7v55.8l23.9,23.9v7.9l30.1-30.1L1148.5-564.8L1148.5-564.8z"/>
</g>
<g>
	<path class="st4" d="M834.2-414.9v54.8L806.1-332v-5.5v-0.4l-0.3-0.3l-23.6-23.6v-53l20,20l0.3,0.3h0.4h10.7h0.4l0.3-0.3
		L834.2-414.9 M835.2-417.3l-21.7,21.7h-10.7l-21.7-21.7v55.8l23.9,23.9v7.9l30.1-30.1v-57.5L835.2-417.3L835.2-417.3z"/>
</g>
<g>
	<path class="st4" d="M834.2-488.7v54.8l-28.1,28.1v-5.5v-0.4l-0.3-0.3l-23.6-23.6v-53l20,20l0.3,0.3h0.4h10.7h0.4l0.3-0.3
		L834.2-488.7 M835.2-491.1l-21.7,21.7h-10.7l-21.7-21.7v55.8l23.9,23.9v7.9l30.1-30.1v-57.5L835.2-491.1L835.2-491.1z"/>
</g>
<g>
	<path class="st4" d="M834.2-562.4v54.8l-28.1,28.1v-5.5v-0.4l-0.3-0.3l-23.6-23.6v-53l20,20l0.3,0.3h0.4h10.7h0.4l0.3-0.3
		L834.2-562.4 M835.2-564.8l-21.7,21.7h-10.7l-21.7-21.7v55.8l23.9,23.9v7.9l30.1-30.1v-57.5L835.2-564.8L835.2-564.8z"/>
</g>
<g>
	<path class="st4" d="M896.9-414.9v54.8L868.8-332v-5.5v-0.4l-0.3-0.3l-23.6-23.6v-53l20,20l0.3,0.3h0.4h10.7h0.4l0.3-0.3
		L896.9-414.9 M897.9-417.3l-21.7,21.7h-10.7l-21.7-21.7v55.8l23.9,23.9v7.9l30.1-30.1v-57.5L897.9-417.3L897.9-417.3z"/>
</g>
<g>
	<path class="st4" d="M896.9-488.7v54.8l-28.1,28.1v-5.5v-0.4l-0.3-0.3l-23.6-23.6v-53l20,20l0.3,0.3h0.4h10.7h0.4l0.3-0.3
		L896.9-488.7 M897.9-491.1l-21.7,21.7h-10.7l-21.7-21.7v55.8l23.9,23.9v7.9l30.1-30.1v-57.5L897.9-491.1L897.9-491.1z"/>
</g>
<g>
	<path class="st4" d="M896.9-562.4v54.8l-28.1,28.1v-5.5v-0.4l-0.3-0.3l-23.6-23.6v-53l20,20l0.3,0.3h0.4h10.7h0.4l0.3-0.3
		L896.9-562.4 M897.9-564.8l-21.7,21.7h-10.7l-21.7-21.7v55.8l23.9,23.9v7.9l30.1-30.1v-57.5L897.9-564.8L897.9-564.8z"/>
</g>
<g>
	<path class="st4" d="M959.5-414.9v54.8L931.4-332v-5.5v-0.4l-0.3-0.3l-23.6-23.6v-53l20,20l0.3,0.3h0.4h10.7h0.4l0.3-0.3
		L959.5-414.9 M960.5-417.3l-21.7,21.7h-10.7l-21.7-21.7v55.8l23.9,23.9v7.9l30.1-30.1v-57.5L960.5-417.3L960.5-417.3z"/>
</g>
<g>
	<path class="st4" d="M959.5-487.8v54.8l-28.1,28.1v-5.5v-0.4l-0.3-0.3l-23.6-23.6v-53l20,20l0.3,0.3h0.4h10.7h0.4l0.3-0.3
		L959.5-487.8 M960.5-490.2l-21.7,21.7h-10.7l-21.7-21.7v55.8l23.9,23.9v7.9l30.1-30.1v-57.5L960.5-490.2L960.5-490.2z"/>
</g>
<g>
	<path class="st4" d="M959.5-562.4v54.8l-28.1,28.1v-5.5v-0.4l-0.3-0.3l-23.6-23.6v-53l20,20l0.3,0.3h0.4h10.7h0.4l0.3-0.3
		L959.5-562.4 M960.5-564.8l-21.7,21.7h-10.7l-21.7-21.7v55.8l23.9,23.9v7.9l30.1-30.1v-57.5L960.5-564.8L960.5-564.8z"/>
</g>
<g>
	<path class="st4" d="M646.2-414.9v54.8L618.1-332v-5.5v-0.4l-0.3-0.3l-23.6-23.6v-53l20,20l0.3,0.3h0.4h10.7h0.4l0.3-0.3
		L646.2-414.9 M647.2-417.3l-21.7,21.7h-10.7l-21.7-21.7v55.8l23.9,23.9v7.9l30.1-30.1v-57.5L647.2-417.3L647.2-417.3z"/>
</g>
<g>
	<path class="st4" d="M646.2-488.7v54.8l-28.1,28.1v-5.5v-0.4l-0.3-0.3l-23.6-23.6v-53l20,20l0.3,0.3h0.4h10.7h0.4l0.3-0.3
		L646.2-488.7 M647.2-491.1l-21.7,21.7h-10.7l-21.7-21.7v55.8l23.9,23.9v7.9l30.1-30.1v-57.5L647.2-491.1L647.2-491.1z"/>
</g>
<g>
	<path class="st4" d="M646.2-562.4v54.8l-28.1,28.1v-5.5v-0.4l-0.3-0.3l-23.6-23.6v-53l20,20l0.3,0.3h0.4h10.7h0.4l0.3-0.3
		L646.2-562.4 M647.2-564.8l-21.7,21.7h-10.7l-21.7-21.7v55.8l23.9,23.9v7.9l30.1-30.1v-57.5L647.2-564.8L647.2-564.8z"/>
</g>
<g>
	<path class="st4" d="M708.9-414.9v54.8L680.8-332v-5.5v-0.4l-0.3-0.3l-23.6-23.6v-53l20,20l0.3,0.3h0.4h10.7h0.4l0.3-0.3
		L708.9-414.9 M709.9-417.3l-21.7,21.7h-10.7l-21.7-21.7v55.8l23.9,23.9v7.9l30.1-30.1v-57.5L709.9-417.3L709.9-417.3z"/>
</g>
<g>
	<path class="st4" d="M708.9-488.7v54.8l-28.1,28.1v-5.5v-0.4l-0.3-0.3l-23.6-23.6v-53l20,20l0.3,0.3h0.4h10.7h0.4l0.3-0.3
		L708.9-488.7 M709.9-491.1l-21.7,21.7h-10.7l-21.7-21.7v55.8l23.9,23.9v7.9l30.1-30.1v-57.5L709.9-491.1L709.9-491.1z"/>
</g>
<g>
	<path class="st4" d="M708.9-562.4v54.8l-28.1,28.1v-5.5v-0.4l-0.3-0.3l-23.6-23.6v-53l20,20l0.3,0.3h0.4h10.7h0.4l0.3-0.3
		L708.9-562.4 M709.9-564.8l-21.7,21.7h-10.7l-21.7-21.7v55.8l23.9,23.9v7.9l30.1-30.1v-57.5L709.9-564.8L709.9-564.8z"/>
</g>
<g>
	<path class="st4" d="M771.6-414.9v54.8L743.5-332v-5.5v-0.4l-0.3-0.3l-23.6-23.6v-53l20,20l0.3,0.3h0.4H751h0.4l0.3-0.3
		L771.6-414.9 M772.6-417.3l-21.7,21.7h-10.7l-21.7-21.7v55.8l23.9,23.9v7.9l30.1-30.1v-57.5L772.6-417.3L772.6-417.3z"/>
</g>
<g>
	<path class="st4" d="M771.6-487.8v54.8l-28.1,28.1v-5.5v-0.4l-0.3-0.3l-23.6-23.6v-53l20,20l0.3,0.3h0.4H751h0.4l0.3-0.3
		L771.6-487.8 M772.6-490.2l-21.7,21.7h-10.7l-21.7-21.7v55.8l23.9,23.9v7.9l30.1-30.1v-57.5L772.6-490.2L772.6-490.2z"/>
</g>
<g>
	<path class="st4" d="M771.6-562.4v54.8l-28.1,28.1v-5.5v-0.4l-0.3-0.3l-23.6-23.6v-53l20,20l0.3,0.3h0.4H751h0.4l0.3-0.3
		L771.6-562.4 M772.6-564.8l-21.7,21.7h-10.7l-21.7-21.7v55.8l23.9,23.9v7.9l30.1-30.1v-57.5L772.6-564.8L772.6-564.8z"/>
</g>
</svg>
