<svg id="Ebene_1" xmlns="http://www.w3.org/2000/svg" viewBox="0 0 345.2 259.5"><style>.st0{fill:none;stroke:#adadad;stroke-width:.25;stroke-miterlimit:10}</style><path class="st0" d="M250.7 67.5V96l-14.8 14.8v-3.5l-.1-.1-12.1-12.1V67.5l10.6 10.6.1.1h5.6l.1-.1 10.6-10.6m.2-.6l-11 11h-5.4l-11-11v28.3l12.1 12.1v4L250.9 96V66.9zm42.3 93.8v13.4l-6.9 6.9v-1.4l-.1-.1-5.8-5.8v-12.9l4.9 4.9.1.1h2.8l.1-.1 4.9-5m.2-.6l-5.3 5.3h-2.6l-5.3-5.3v13.7l5.9 5.9v1.9l7.4-7.4v-14.1h-.1zm-108.1 37.4v5.4l-2.7 2.7v-.3l-.1-.1-2.5-2.5v-5.2l1.9 1.9.1.1h1.3l.1-.1 1.9-1.9m.2-.6l-2.3 2.3h-1.1l-2.3-2.3v6l2.6 2.6v.8l3.2-3.2-.1-6.2zM68.1 151.3v5.4l-2.7 2.7v-.3l-.1-.1-2.5-2.5v-5.2l1.9 1.9.1.1h1.3l.1-.1 1.9-1.9m.3-.6l-2.3 2.3H65l-2.3-2.3v6l2.6 2.6v.8l3.2-3.2-.1-6.2zm83 69.6v10.2l-5.2 5.2v-1l-.1-.1-4.4-4.4v-9.8l3.7 3.7.1.1h2.2l.1-.1 3.6-3.8m.3-.6l-4.1 4.1h-2l-4.1-4.1v10.5l4.5 4.5v1.5l5.7-5.7v-10.8zm97-184.6v10.2l-5.2 5.2v-1l-.1-.1L239 45v-9.8l3.7 3.7.1.1h2.2l.1-.1 3.6-3.8m.3-.6l-4.1 4.1h-2l-4.1-4.1V45l4.5 4.5V51l5.7-5.7V34.5zm-36.2 77.7v7.8l-3.9 3.9v-.7l-.1-.1-3.4-3.4v-7.5l2.8 2.8.1.1h1.8l.1-.1 2.6-2.8m.3-.6l-3.2 3.2h-1.6l-3.2-3.2v8.2l3.5 3.5v1.2l4.4-4.4v-8.5h.1zm-76.7-33.5v12.1l-6.2 6.2v-1.3l-.1-.1-5.3-5.3V78.1l4.4 4.4.1.1h2.6l.1-.1 4.4-4.4m.3-.6l-4.8 4.8h-2.4l-4.8-4.8V90l5.3 5.3V97l6.7-6.7V77.5zM327 228.6v12.1l-6.2 6.2v-1.3l-.1-.1-5.3-5.3v-11.7l4.4 4.4.1.1h2.6l.1-.1 4.4-4.3m.3-.6l-4.8 4.8h-2.4l-4.8-4.8v12.4l5.3 5.3v1.8l6.7-6.7V228zm-59.2-101.6v6.9l-3.5 3.5v-.5l-.1-.1-3.1-3.1v-6.7l2.4 2.4.1.1h1.6l.1-.1 2.5-2.4m.2-.6l-2.9 2.9H264l-2.9-2.9v7.4l3.2 3.2v1.1l4-4v-7.7zM42.4 14.2v26.6L28.6 54.5v-3.2l-.1-.1-11.2-11.3V14.2l9.8 9.8.1.1h5.3l.1-.1 9.8-9.8m.2-.6L32.4 23.9h-5.1L17 13.6V40l11.3 11.3v3.8l14.3-14.3V13.6zm150 17.8v21.1l-10.9 10.9v-2.5l-.1-.1-9-9V31.4l7.8 7.8.1.1h4.2l.1-.1 7.8-7.8m.3-.6l-8.2 8.2h-4l-8.2-8.2V52l9.1 9.1v3L193 52.7V30.8h-.1zM79 69.2v9.4l-4.8 4.8v-.9l-.1-.1-4.1-4.1v-9.1l3.4 3.4.1.1h2.1l.1-.1 3.3-3.4m.2-.6l-3.8 3.8h-1.9l-3.8-3.8v9.8l4.2 4.2V84l5.3-5.3V68.6zm63.2 82.4v12.1l-6.2 6.2V168l-.1-.1-5.3-5.3V151l4.4 4.4.1.1h2.6l.1-.1 4.4-4.4m.3-.6l-4.8 4.8h-2.4l-4.8-4.8v12.5l5.3 5.3v1.7l6.7-6.7v-12.8z"/></svg>