<svg xmlns="http://www.w3.org/2000/svg" viewBox="0 0 53.47 88.73"><defs><style>.cls-1{fill:#fff;}.cls-2{fill:#fdb906;}.cls-3{fill:#e40138;}.cls-4{fill:#1da4c1;}.cls-5{fill:none;stroke:#000;stroke-miterlimit:10;}</style></defs><title>Element 2</title><g id="Ebene_2" data-name="Ebene 2"><g id="Ebene_1-2" data-name="Ebene 1"><path class="cls-1" d="M22.61,78.8,0,56.19V0L22.21,22.21h9.06L53.47,0V57.86L22.61,88.73Z"/><polygon class="cls-2" points="29.34 28.73 50.22 28.73 50.22 7.86 29.34 28.73"/><polygon class="cls-3" points="3.25 51.97 3.25 25.46 29.76 25.46 3.25 51.97"/><polygon class="cls-4" points="50.22 53.65 50.22 30.76 27.32 30.76 50.22 53.65"/><polygon class="cls-3" points="25.89 32.19 50.22 56.52 25.89 80.84 25.89 32.19"/><polygon class="cls-4" points="18.83 23.44 3.25 23.44 3.25 7.86 18.83 23.44"/><polygon class="cls-2" points="23.83 34.27 3.25 54.84 23.83 75.42 23.83 34.27"/><path class="cls-5" d="M52.24,3V57.35L23.83,85.77V78.29L1.23,55.68V3L21.7,23.44H31.77L52.24,3M1,2.47v53.3l.06.06L23.63,78.37v7.89l.35-.35L52.39,57.5l.06-.06v-55l-.35.35L31.69,23.23h-9.9L1.37,2.82,1,2.47Z"/></g></g></svg>